<svg xmlns="http://www.w3.org/2000/svg" viewBox="0 0 500 500"><g id="freepik--Floor--inject-44"><ellipse id="freepik--floor--inject-44" cx="250" cy="345.8" rx="231.88" ry="133.87" style="fill:#f5f5f5"></ellipse></g><g id="freepik--Shadows--inject-44"><ellipse id="freepik--Shadow--inject-44" cx="320.69" cy="413.15" rx="75.43" ry="41.76" style="fill:#e0e0e0"></ellipse><ellipse id="freepik--shadow--inject-44" cx="182.68" cy="403" rx="75.43" ry="41.76" style="fill:#e0e0e0"></ellipse></g><g id="freepik--Ladder--inject-44"><g id="freepik--ladder--inject-44"><path d="M336.92,327.75l-21.15,58.1c-.95,1.89,2.22,2.93,3.61,2.12a3.51,3.51,0,0,0,1-1.08L341.17,330Z" style="fill:#37474f"></path><polygon points="308.3 411.74 276.16 393.11 277.16 388.66 309.3 407.3 308.3 411.74" style="fill:#263238"></polygon><path d="M285.44,360.45,266,414c-.95,1.89,2.22,2.93,3.62,2.12a2,2,0,0,0,1-1l0,0,19-51.95Z" style="fill:#37474f"></path><polygon points="358.78 382.45 328.39 364.84 329.91 360.7 359.78 378.01 358.78 382.45" style="fill:#263238"></polygon><path d="M368.35,412.34a3.47,3.47,0,0,0-.05-.42l-16.49-77.2-6.56-3.78,17.46,81.57a1.4,1.4,0,0,0,.68.8,4.77,4.77,0,0,0,4.31,0,1.2,1.2,0,0,0,.66-.72A2.37,2.37,0,0,0,368.35,412.34Z" style="fill:#455a64"></path><path d="M312.69,403.23l-18.11-10.46a2.37,2.37,0,0,1-1.08-1.87v-.43a2.37,2.37,0,0,1,1.08-1.87l53.4-31a2.41,2.41,0,0,1,2.16,0l18.11,10.46a2.38,2.38,0,0,1,1.08,1.87v.43a2.4,2.4,0,0,1-1.08,1.88l-53.39,31A2.37,2.37,0,0,1,312.69,403.23Z" style="fill:#162039"></path><path d="M293.82,389.41a2.14,2.14,0,0,0-.32,1.06v.43a2.37,2.37,0,0,0,1.08,1.87l18.11,10.46a2.25,2.25,0,0,0,1.09.26v-2.56Z" style="opacity:0.1"></path><path d="M313.78,400.93v2.56a2.24,2.24,0,0,0,1.08-.26l21.72-12.54,31.67-18.42a2.4,2.4,0,0,0,1.08-1.88V370a2.17,2.17,0,0,0-.32-1.06Z" style="opacity:0.15"></path><path d="M319,430.19l-18.12-10.46a2.39,2.39,0,0,1-1.08-1.87v-.43a2.39,2.39,0,0,1,1.08-1.87l53.4-31a2.41,2.41,0,0,1,2.16,0l18.11,10.46a2.37,2.37,0,0,1,1.08,1.87v.43a2.37,2.37,0,0,1-1.08,1.87l-53.39,31A2.41,2.41,0,0,1,319,430.19Z" style="fill:#162039"></path><path d="M300.08,416.36a2.28,2.28,0,0,0-.32,1.07v.43a2.39,2.39,0,0,0,1.08,1.87L319,430.19a2.24,2.24,0,0,0,1.08.26v-2.56Z" style="opacity:0.1"></path><path d="M320,427.89v2.56a2.24,2.24,0,0,0,1.08-.26l21.73-12.54,31.66-18.43a2.37,2.37,0,0,0,1.08-1.87v-.43a2.23,2.23,0,0,0-.31-1.06Z" style="opacity:0.15"></path><path d="M307.34,376.26l-30.1-17.38a2.37,2.37,0,0,1-1.08-1.87v-.43a2.37,2.37,0,0,1,1.08-1.87l53.39-31a2.41,2.41,0,0,1,2.16,0l30.1,17.38A2.37,2.37,0,0,1,364,343v.43a2.37,2.37,0,0,1-1.08,1.87l-53.39,31A2.41,2.41,0,0,1,307.34,376.26Z" style="fill:#162039"></path><path d="M308.42,374v2.56a2.24,2.24,0,0,0,1.08-.26l21.73-12.54,31.66-18.43a2.37,2.37,0,0,0,1.08-1.87V343a2.23,2.23,0,0,0-.31-1.06Z" style="opacity:0.15"></path><path d="M276.47,355.52a2.26,2.26,0,0,0-.31,1.06V357a2.37,2.37,0,0,0,1.08,1.87l30.1,17.38a2.24,2.24,0,0,0,1.08.26V374Z" style="opacity:0.1"></path><path d="M303.46,374l14.36,67.21a1.33,1.33,0,0,1,.05.44,1.64,1.64,0,0,1,0,.2,1.35,1.35,0,0,1-.66.72,4.34,4.34,0,0,1-2.16.51,4.28,4.28,0,0,1-2.15-.51,1.46,1.46,0,0,1-.61-.56l-.07-.22,0-.09-15.3-71.48" style="fill:#455a64"></path></g></g><g id="freepik--character-2--inject-44"><g id="freepik--Character--inject-44"><path d="M321.3,328c-1.52,1.29-3.62,7.47-3.93,8.16a82.77,82.77,0,0,1-4.19,8.76c-.6,1-1.35,1.82-2,2.75a4.12,4.12,0,0,1-2.1,1.61,2.5,2.5,0,0,1-2.27-.3,2.44,2.44,0,0,1-.82-1.66,17.91,17.91,0,0,1,.38-3.58,17.34,17.34,0,0,1-4,4.22c-1.11.85-1.61,1.13-2.77,1.88a21,21,0,0,0-2.7,2,4.4,4.4,0,0,0-1.43,2.31,3.64,3.64,0,0,0,1.53,3.59,8.25,8.25,0,0,0,3.87,1.32c4.89.63,10.83.12,14.41-3.61a11.3,11.3,0,0,0,2.56-4.22,45.43,45.43,0,0,1,2.43-6.41,28.1,28.1,0,0,1,3.79-5.34,7.59,7.59,0,0,0,1.45-2.16,5.38,5.38,0,0,0-.25-3.8,28.2,28.2,0,0,0-2.74-5.18,1.44,1.44,0,0,0-.49-.52C321.79,327.69,321.55,327.77,321.3,328Z" style="fill:#263238"></path><path d="M427.16,256a15.07,15.07,0,0,0-2.05-1.39,18.24,18.24,0,0,1-6-5.23c-1.81-2.78-2.27-6.39-4.57-8.78a7.67,7.67,0,0,0-6-2.21c-2.71.21-3.7,2.13-5.81,3.48-1.71,1.08-6,1.39-9.12,1.51s-6.56,0-9.68.11c-4.64.17-12.77-.48-20.64,2.85-5.73-20.43-12-61.11-26.76-73.08a3,3,0,0,0-2.05.2l0-.14L297,185.52c-.65,12.74,3.06,63.4,6,81.5,1,6.35,3,32.36,5.26,46.73q.64,4.23,1.28,8.44a37.35,37.35,0,0,1,.64,9.19c-.09,1-.2,2-.36,3a21,21,0,0,1-1.71,5.09,32.31,32.31,0,0,1-3.75,6.36c-.75,1-4.34,3.88-1.93,4.73a9.1,9.1,0,0,0,8.12-1.53,20.86,20.86,0,0,0,5.47-6.54c1.52-2.56,3.05-5.14,4.34-7.82a12.8,12.8,0,0,0,1.34-4.11c.18-1.69-.36-1.61-.21-4.34s1.22-17.6,1.22-17.6c.92-11,1.88-22.73,2-27,.24-6.92-2-20.68-2-20.68l2.05-40.44c7.63,14.67,19,34.15,22.69,39.79,5.19,7.83,9.55,7.14,19.52,4,8.43-2.65,26-7.95,35.12-9.13,3.26.27,6.31,2.47,9,4.28a51.55,51.55,0,0,1,7.81,6.55,12.14,12.14,0,0,1,2.2,2.81c.36.69,1.08,1.34,1.51,2a3.64,3.64,0,0,0,5.71.58c2.09-1.9,2.39-4.85,2.36-7.41A11,11,0,0,0,427.16,256Z" style="fill:#ffa8a7"></path><path d="M414.54,240.55c2.3,2.39,2.76,6,4.57,8.78a18.24,18.24,0,0,0,6,5.23,15.07,15.07,0,0,1,2.05,1.39,12.21,12.21,0,0,1,3.82,8.37c0,2.55-.46,5.57-2.55,7.48a4,4,0,0,1-6.09-.59c-.43-.65-.95-1.75-1.31-2.44a12.14,12.14,0,0,0-2.2-2.81,3.26,3.26,0,0,0,2.79-3.46c-.25-2.3-5.73-8.66-8.5-12.2s-8.06-9-10.42-8.48c2.11-1.35,3.1-3.27,5.81-3.48A7.67,7.67,0,0,1,414.54,240.55Z"></path><path d="M342.71,179c-1.22-1.54-9.21-9.49-9.21-9.49-8.09,7.33-31,8.12-38.49,3.58.28,12.39,1.16,26.7,1.81,39.93.6,12.1,1.49,21.43,1.49,21.43.72,10.45,2,22.14,4.15,41.6,1.87,16.94,6.14,40.16,6.14,40.16s5.38,2.21,13.71-.08c0,0,2.05-18.26,2.73-26.24.75-8.71,1.59-13.89-1.45-28.67l1.29-39.69s12.75,25.44,16.57,31.41,8.21,12.44,11.08,14,4.92.75,17.37-2.87,23.19-7.22,23.19-7.22.82-8.34-1.7-14.07c0,0-8.56,0-13.32.16s-11.34.83-14.46,2.67c0,0-4.81-21.86-7.86-33S349.3,187.36,342.71,179Z" style="fill:#455a64"></path><g id="freepik--character--inject-44"><path d="M222.35,123.63s20.78,12,24.71,14.08c4.19,2.17,7,3,9.35,3.16,0,0,22.68,1.13,27.45,1.23,6,.13,8.62.36,11.73-1,1.72-.79,1.71-.83,6.17-4.06a18,18,0,0,0-1.48-4.72c-.59-1.14-5-6.8-6.23-7-5.3-1-18.86.16-22.76.36-4.49.24-10.57.36-15.07.39,0,0-25.74-10.33-27.19-12.11s-2-5.37-3.61-7.82c-1.06-1.65-2.58-2.93-3.39-4.75-.2-.45-.58-1-1-.83a.84.84,0,0,0-.31.28,3.81,3.81,0,0,0-.27,3.47c.31,1,.85,2.65-.2,4.08-1.22-.85-2.08-3.36-2.49-5.52a9.14,9.14,0,0,0-1.29-3.68c-1.25-1.61-8.61-1.42-9.68.23s-1.16,4.62-.08,8C210,117.78,222.35,123.63,222.35,123.63Z" style="fill:#ffa8a7"></path><g id="freepik--Light--inject-44"><path d="M219.71,110.09a3.2,3.2,0,1,1-4.05-2A3.2,3.2,0,0,1,219.71,110.09Z" style="fill:#37474f"></path><path d="M213.09,112.51c-2.4-.49-3-2.38-1.4-4.21a8.51,8.51,0,0,1,7.3-2.42c2.4.49,3,2.38,1.39,4.21A8.46,8.46,0,0,1,213.09,112.51Z" style="fill:#455a64"></path><path d="M212.61,111.45c-2.47-.51-3.12-2.45-1.44-4.34a8.76,8.76,0,0,1,7.52-2.5c2.47.51,3.12,2.46,1.44,4.34A8.75,8.75,0,0,1,212.61,111.45Z" style="fill:#37474f"></path><path d="M212.12,110.36c-2.55-.53-3.21-2.53-1.48-4.48a9,9,0,0,1,7.75-2.57c2.55.53,3.21,2.53,1.48,4.47A9,9,0,0,1,212.12,110.36Z" style="fill:#455a64"></path><path d="M211.61,109.23c-2.62-.54-3.31-2.6-1.53-4.61a9.3,9.3,0,0,1,8-2.65c2.63.54,3.32,2.6,1.53,4.61A9.29,9.29,0,0,1,211.61,109.23Z" style="fill:#37474f"></path><path d="M211.13,108c-2.69-.55-3.39-2.65-1.57-4.7a9.49,9.49,0,0,1,8.15-2.71c2.69.55,3.39,2.66,1.57,4.71A9.49,9.49,0,0,1,211.13,108Z" style="fill:#455a64"></path><path d="M203.43,71.25a15.27,15.27,0,0,0-9.67,19.31c3.82,11.5,13.94,10.26,15.48,14.89a2.63,2.63,0,0,0,2.15,1.56,8.26,8.26,0,0,0,7.07-2.35,2.63,2.63,0,0,0,.78-2.53h0c-1.54-4.63,7.32-9.7,3.5-21.2A15.28,15.28,0,0,0,203.43,71.25Z" style="fill:#162039"></path><g style="opacity:0.6000000000000001"><path d="M203.43,71.25a15.27,15.27,0,0,0-9.67,19.31c3.82,11.5,13.94,10.26,15.48,14.89a2.63,2.63,0,0,0,2.15,1.56,8.26,8.26,0,0,0,7.07-2.35,2.63,2.63,0,0,0,.78-2.53h0c-1.54-4.63,7.32-9.7,3.5-21.2A15.28,15.28,0,0,0,203.43,71.25Z" style="fill:#fff"></path></g><path d="M212.05,106.09c-1.75-.36-2.2-1.74-1-3.07a6.19,6.19,0,0,1,5.32-1.77c1.75.36,2.21,1.74,1,3.07A6.19,6.19,0,0,1,212.05,106.09Z" style="fill:#162039"></path><path d="M216,102.67a.53.53,0,0,1-.66-.32,37.55,37.55,0,0,1-1.73-8.62,18.27,18.27,0,0,1,0-2.54,6.63,6.63,0,0,1-1.46-.2,8.84,8.84,0,0,1-2.46-1,9,9,0,0,1-1.39,2.25,7.23,7.23,0,0,1-1.05,1,19.92,19.92,0,0,1,1.49,2.07,37.12,37.12,0,0,1,3.76,7.94.52.52,0,1,1-1,.3,36.65,36.65,0,0,0-3.65-7.69,16.62,16.62,0,0,0-1.5-2,3.2,3.2,0,0,1-3,.1,1.66,1.66,0,0,1-.89-2,1.38,1.38,0,0,1,1.15-1c.83-.11,1.85.44,2.93,1.52a5.83,5.83,0,0,0,1-.92,8,8,0,0,0,1.31-2.19,3.85,3.85,0,0,1-1.64-2.52,1.39,1.39,0,0,1,1-1.42,1.37,1.37,0,0,1,1.65.54,3.89,3.89,0,0,1,.2,3,7.91,7.91,0,0,0,2.36,1,5.92,5.92,0,0,0,1.32.16c.22-1.51.71-2.56,1.43-3a1.37,1.37,0,0,1,1.52.12,1.67,1.67,0,0,1,.47,2.1,3.23,3.23,0,0,1-2.48,1.71,16.87,16.87,0,0,0,0,2.54,36.67,36.67,0,0,0,1.68,8.35.52.52,0,0,1-.31.67ZM203.66,92.05a.39.39,0,0,0-.22.28c-.13.41.27.66.4.73a2,2,0,0,0,1.74,0c-.84-.79-1.5-1.08-1.85-1Zm11.11-2a2.07,2.07,0,0,0,1.39-1c.06-.13.23-.58-.12-.83-.2-.14-.32-.11-.41-.06A3,3,0,0,0,214.77,90Zm-6.28-3.56a.35.35,0,0,0-.29.39,2.51,2.51,0,0,0,.91,1.49A2.55,2.55,0,0,0,209,86.6.35.35,0,0,0,208.49,86.46Z" style="fill:#fff"></path></g><path d="M212.05,64.57a1,1,0,0,1-.8-1.18l1-5.18a1,1,0,0,1,1.18-.81h0a1,1,0,0,1,.8,1.17l-1,5.19a1,1,0,0,1-1.18.8Z" style="fill:#e0e0e0"></path><path d="M200.44,65.46a1,1,0,0,1-.76-.66l-1.75-5a1,1,0,0,1,1.91-.68l1.75,5a1,1,0,0,1-.62,1.29A1.07,1.07,0,0,1,200.44,65.46Z" style="fill:#e0e0e0"></path><path d="M190.83,72a1,1,0,0,1-.47-.23l-4-3.43a1,1,0,1,1,1.32-1.53l4,3.43a1,1,0,0,1-.85,1.76Z" style="fill:#e0e0e0"></path><path d="M180.61,81.55a1,1,0,0,1,.38-2l5.18,1h0a1,1,0,1,1-.38,2l-5.18-1Z" style="fill:#e0e0e0"></path><path d="M181.7,95.89a1,1,0,0,1-.76-.66,1,1,0,0,1,.62-1.29l5-1.75a1,1,0,0,1,.67,1.91l-5,1.75A1.07,1.07,0,0,1,181.7,95.89Z" style="fill:#e0e0e0"></path><path d="M230,90.83a1,1,0,1,1,.37-2l5.19,1h0a1,1,0,0,1-.38,2l-5.18-1Z" style="fill:#e0e0e0"></path><path d="M229.12,79.22a1,1,0,0,1-.76-.65,1,1,0,0,1,.62-1.29l5-1.75a1,1,0,0,1,.67,1.91l-5,1.74A.88.88,0,0,1,229.12,79.22Z" style="fill:#e0e0e0"></path><path d="M222.55,69.61a1.07,1.07,0,0,1-.47-.22A1,1,0,0,1,222,68l3.44-4a1,1,0,1,1,1.53,1.32l-3.43,4A1,1,0,0,1,222.55,69.61Z" style="fill:#e0e0e0"></path><path d="M300,116.87c1.55,1.37,2.69,4.2,4,5.81a47,47,0,0,0,31.84,17,23.85,23.85,0,0,0,9.33-.78,12.1,12.1,0,0,0,7.14-5.76,8.19,8.19,0,0,0-.81-8.85c3.81-1.93,7.42-5.25,7.67-9.51.19-3.36-1.84-6.56-4.57-8.53a23.57,23.57,0,0,0-9.36-3.58,71.56,71.56,0,0,1-9.85-2.2c-5.09-1.79-8.91-4.28-11.13-9.21-3.08-6.83-3.06-13-11-12.77-1.53-4.21-4.11-5.85-7.62-7.11s-7.27-.81-10.78,0c-5.66,1.29-10.6,5.17-16.37,5.77-1.55.16-3.13.08-4.67.39A5.26,5.26,0,0,0,270,80a6,6,0,0,0,.69,5.54,15.46,15.46,0,0,0,4.14,3.53c-1.62,1-2.53,6.49,2.22,8.71a14.54,14.54,0,0,0,7.39,1.77c-.16,0,1.18,11.22,1.46,12.22.72,2.63,5.91,3.34,8.16,3.87,1.67.4,4.36,0,5.7,1Z" style="fill:#263238"></path><path d="M313.16,79.32l5.22-2.51a3.06,3.06,0,0,0-4-1.38A2.82,2.82,0,0,0,313.16,79.32Z" style="fill:#263238"></path><path d="M284.62,142.67a100.17,100.17,0,0,1,9.43-17.41l19.56-2.8c2.07-.27,5.13-.56,6.26-.58a9.83,9.83,0,0,1,3,.42c3.74,1.21,4.7,4.53,5.54,8.52.93,4.38,3.33,8.45,3.43,15.94l-1,8.85-.08,1.48c0,.26,0,.51,0,.77a13.28,13.28,0,0,0,3.39,10c5.91,7,6.88,8,9.22,11.26-4.71,8.85-36.07,20.78-48.19,10.69,0,0-.71-16.13-1-20.25-1.09-5.55-2.29-9.32-2.58-10.65C284.55,157,282.33,148.15,284.62,142.67Z" style="fill:#162039"></path><path d="M298.1,156.76s6.23,3.8,12.5.73a11.26,11.26,0,0,0,6.56-8.91s1.56,7.41-6.39,10.91A10.87,10.87,0,0,1,298.1,156.76Z" style="opacity:0.1"></path><path d="M280.32,103.47c1.88,11.75,4.93,14.71,8,15.29,2.07.39,5.66-.19,9.2-1.12l.66,7.11s-2.65,3.46-2.52,5.32c.21,3.29,6.2,2.84,11.15.08a17.86,17.86,0,0,0,5.55-5.39,4.49,4.49,0,0,0,.57-2.3l-1.44-15.62s2.23,2.13,5-1.13,3-7.23.25-9.28c-1.89-1.41-4.54-1.34-6.14,1.62-.85,2.13-.81,4.2-2,3.46-3-1.74-1.76-6-3.84-8.12-2.29-2.37-5.92-3.4-9.07-4-4.75-.83-9.6-.24-13-4.24C281.63,85.3,278.25,90.52,280.32,103.47Z" style="fill:#ffa8a7"></path><path d="M293.4,99.86a1.6,1.6,0,1,0,1.53-1.73A1.62,1.62,0,0,0,293.4,99.86Z" style="fill:#263238"></path><path d="M282.17,100.41a1.53,1.53,0,0,0,1.57,1.5,1.44,1.44,0,0,0,1.44-1.63,1.52,1.52,0,0,0-1.57-1.5A1.55,1.55,0,0,0,282.17,100.41Z" style="fill:#263238"></path><polygon points="289.4 98.64 290.06 108.62 284.68 107.48 289.4 98.64" style="fill:#f28f8f"></polygon><path d="M297.56,117.64c3.75-.85,11.35-3.82,12.29-7a8.07,8.07,0,0,1-2.38,4.2c-2.15,2.22-9.69,5.2-9.69,5.2Z" style="fill:#f28f8f"></path><path d="M294.52,94.66l3.87,1.28a2.14,2.14,0,0,0-1.34-2.64A2,2,0,0,0,294.52,94.66Z" style="fill:#263238"></path><path d="M281.17,97.12l3.53-2a2.14,2.14,0,0,0-2.86-.77A2,2,0,0,0,281.17,97.12Z" style="fill:#263238"></path><path d="M297.67,108.54l-4.83,2.2a2.59,2.59,0,0,0,3.46,1.4A2.67,2.67,0,0,0,297.67,108.54Z" style="fill:#f28f8f"></path><path d="M378,177.73s-9.15-21.24-11-25.24c-2.27-4.77-3.89-6.37-5.79-7.81,0,0-18.29-15.16-22.26-17.81-5-3.33-7.64-4.87-11-5.35-1.88-.26-2.76,0-8.26.38-3.87,9.77,1.93,25.07,12.18,24.86l.25-4.12,22.38,14.9s13.74,21.82,14,24.09-.39,5.53-.37,8.45c0,2,.61,3.86.32,5.83-.08.49-.06,1.17.42,1.25a.65.65,0,0,0,.41-.07,3.76,3.76,0,0,0,2.09-2.77c.3-1,.17-1.76.46-2.8a22.44,22.44,0,0,1,1,5.46c.14,1.19.39,2.56.49,3.62.2,2,3.16,1.9,4.85.9a7,7,0,0,0,3.3-4.35C383.86,190.16,378,177.73,378,177.73Z" style="fill:#ffa8a7"></path><path d="M332.06,142.64c-3.41-1.54-8.5-5.67-8.5-5.67s4.11,7,8.37,7.8Z" style="fill:#f28f8f"></path></g><path d="M324.88,221.51l-5.59-13.29s-9-.8-14.44-4.47c0,0,3.74,5.16,12,6.87L323.38,222l.56,28.33Z" style="fill:#37474f"></path></g></g><g id="freepik--character-1--inject-44"><g id="freepik--character--inject-44"><path d="M194,174.08c5-.53,11.46.66,15.5,7.54,1.32,2.24,7.27,16.45,12.26,28.83,5-10.22,9.18-18.89,9.75-20.49,1.52-4.26,1.26-7,2.8-11.41a35.11,35.11,0,0,0,1.88-7.48c.3-1.74,1.91-.65,2.51.05a7.93,7.93,0,0,1,1.86,4.17c.17,1.37.14,3.06,1.35,3.71,1,.54,2.23,0,3.2-.62a64.73,64.73,0,0,0,10.25-7.72,6.49,6.49,0,0,1,1.73-1.27,2,2,0,0,1,2,.15,2,2,0,0,1,.59,1.92,6,6,0,0,1-.84,1.93,3.71,3.71,0,0,1,2,3c.12.87,0,1.71.08,2.57a7.33,7.33,0,0,1,0,3,7.94,7.94,0,0,1-2.2,3.36,38.79,38.79,0,0,1-6.57,5.43q-2.34,1.54-4.65,3.15a16.13,16.13,0,0,0-4.06,3.27c-1.87,2.56-2.9,5.62-4.08,8.53-1.84,4.5-4.52,17-10.21,26.23-3.27,5.34-8.31,7.56-12.84,1.9a62.39,62.39,0,0,1-6.58-10.34c-6.48-13-11-23.83-11-23.83S191.5,185.81,194,174.08Z" style="fill:#ffbda7"></path><path d="M192.93,173.87c3.72-.26,7.56-.27,10.85,1.27,4.13,1.92,6.17,6.68,8.1,11s8,18.58,8,18.58l-16.2,10.34-8.34-17A61.78,61.78,0,0,1,192.93,173.87Z" style="fill:#37474f"></path><path d="M221.75,210.45a3.23,3.23,0,0,0-1,0c-1.16.17-2.54.42-7.51,5.85-4.76,5.18-3.36,7.47-3.36,7.47l.52,1s-.94,1-2.11-.62a77.8,77.8,0,0,1-5.22-8.35c-.4-1.13.53-7.86,5.9-12.27,5-4.13,9.35-3.14,10.24-2.44s3.29,7.8,3.29,7.8Z" style="fill:#263238"></path><g id="freepik--Botom--inject-44"><path d="M152,406.8c3.35,1.8,7.06,1.65,11.05,0l2-21.74L152,386.78Z" style="fill:#ffbda7"></path><path d="M192.09,393.8c2.83,6.13,7.94,4.43,13.71.51l-1-21.85H190.89Z" style="fill:#ffbda7"></path><path d="M176.46,427.37c.37.35.26,2.72-.15,3.36s-2.94,2.82-7.47,3.15c-4.33.31-8.2-.28-10.74-1.89s-3.78-3.4-4-5.86,0-4.85-1.14-6.75-2.81-3.73-3.19-4.68a9.59,9.59,0,0,1,0-5Z" style="fill:#263238"></path><path d="M164.58,405.84a11.63,11.63,0,0,0,.53,2.74,24.82,24.82,0,0,0,2.65,5.43,22.55,22.55,0,0,0,1.8,2.55c1.31,1.55,2.94,2.83,4.33,4.33a8.89,8.89,0,0,1,2.67,5.31c.19,3.4-3.5,4.55-6.34,5.06a20.82,20.82,0,0,1-9.22-.46,8.47,8.47,0,0,1-6.21-6.77c-.16-.94-.1-1.91-.21-2.86a13.48,13.48,0,0,0-2.64-5.94,17.33,17.33,0,0,1-2-3.23c-.89-2.11-.18-4.47.39-6.57.49-1.8,1-3.85,1.68-3.68a2.26,2.26,0,0,0,.15,1.09,4.57,4.57,0,0,1,.5,1.07,8.16,8.16,0,0,0,.52,1.4,3.66,3.66,0,0,0,1.5,1.66c0-1.28.09-2.57.13-3.85a1.35,1.35,0,0,1,1.38-1.6,24.11,24.11,0,0,1,7.27-.6,1.31,1.31,0,0,1,1,.43,1.39,1.39,0,0,1,.16.86A33.74,33.74,0,0,0,164.58,405.84Z" style="fill:#455a64"></path><path d="M168.22,414.72c-1.27-1-4.1-1-5.65-.79a9.34,9.34,0,0,0-4.41,1.54,1,1,0,0,1-1.29-.1h0a1,1,0,0,1,.09-1.44,9.53,9.53,0,0,1,5-1.84c3.81-.27,4.93.38,4.93.38S168.59,413.59,168.22,414.72Z" style="fill:#f5f5f5"></path><path d="M171.13,418.2c-1.6-.94-4.71-.8-6.26-.64a8.8,8.8,0,0,0-4.28,1.63,1,1,0,0,1-1.3-.1h0a1,1,0,0,1,.09-1.44,9.91,9.91,0,0,1,5.07-2c3.81-.27,4.8.51,4.8.51A3.2,3.2,0,0,1,171.13,418.2Z" style="fill:#f5f5f5"></path><path d="M160.4,408.44a9.46,9.46,0,0,1,4.79.4c.68.38,1.12,1.44.69,1.71a8.75,8.75,0,0,0-4.25-.58,12.46,12.46,0,0,0-4.13,1.13c-.32.14-.71.35-1.05.53a.89.89,0,0,1-1.25-.39h0a.84.84,0,0,1,.33-1.09A12.33,12.33,0,0,1,160.4,408.44Z" style="fill:#f5f5f5"></path><path d="M228.55,407.78a4,4,0,0,1-.17,3c-.42.89-5,3.49-11.27,3.07a26,26,0,0,1-12.89-4.5c-2.37-1.58-4.85-1.87-7.93-2.05s-7.14-1.71-7.82-3.16.1-3.92.1-3.92Z" style="fill:#263238"></path><path d="M203.51,388.61l1.62-.59a1.29,1.29,0,0,1,.92-.1c.4.15.55.62.66,1a14.53,14.53,0,0,0,.68,2.71,6.62,6.62,0,0,0,1.75,1.83,29,29,0,0,0,5,3.22c2,1.09,4,1.94,6.14,2.89s5,1.55,6.66,2.68c2.45,1.65,2.76,5.79,0,7.42-2.4,1.42-8.73,2.94-15.36,1.07-3.61-1-7.63-4.89-12.37-5.26-3-.24-8.72-1.08-10.66-3.37-.72-1,.24-4.24,1-7,.86-3,1.18-7.78,2.19-7.51.07,1,.94,1.59,1.47,2.44a17.37,17.37,0,0,1,1.08,2.41,4.42,4.42,0,0,0,1.58,2.07,2,2,0,0,0,2.44-.14c.89-.91.36-2.52,1-3.62a3.85,3.85,0,0,1,2.13-1.4Z" style="fill:#455a64"></path><path d="M211.31,395.07a2.81,2.81,0,0,0-2.23-1.49c-1.37-.26-3.8.75-5.3,2a1.12,1.12,0,0,0,.16,1.86h0a1.12,1.12,0,0,0,1.28-.14A8.62,8.62,0,0,1,211.31,395.07Z" style="fill:#f5f5f5"></path><path d="M215.56,397.45a3.22,3.22,0,0,0-2.64-1.36,10,10,0,0,0-5.8,2.17,1.1,1.1,0,0,0,.15,1.8h0a1.07,1.07,0,0,0,1.24-.15A8.64,8.64,0,0,1,215.56,397.45Z" style="fill:#f5f5f5"></path><path d="M220.26,399.6a3.6,3.6,0,0,0-2.74-1.23,9.62,9.62,0,0,0-5.56,2.19,1.1,1.1,0,0,0,.15,1.8h0a1.08,1.08,0,0,0,1.24-.15A8.23,8.23,0,0,1,220.26,399.6Z" style="fill:#f5f5f5"></path><path d="M152.37,248.17c-.79,23.79-1.64,76.24-1.64,76.24-.25,3-1.13,10.08-1.35,20.74-.32,15.46,1.91,49.5,1.91,49.5s6.45,3.46,13.21.65c0,0,7.34-48.85,9.69-64.1,2.07-13.39,6.14-38.61,6.14-38.61L183.54,325a106.82,106.82,0,0,0,1.11,19.59c1.09,7,6.24,37.45,6.24,37.45a28,28,0,0,0,14.91-.32s-.13-49.92,0-56.42c.14-7.4-.58-83.45-.58-83.45Z" style="fill:#37474f"></path><path d="M180.33,292.59l3.52-19.49s9.75-.86,15.14-6.29c0,0-1,5.33-13.22,8.53l-3.52,19.72.14,18.23Z" style="fill:#263238"></path></g><path d="M156.38,176.43c-4.67.83-5,3.14-6,7.77-.51,2.3-1.64,7.24-1.19,11.38L152.66,223l-1.19,31.53c7.51,8.17,37.56,10.79,54-1.19,0,0-.18-51.79-.94-60.11-1.32-14.52-7.9-19.68-17.57-19.65L170.4,175Z" style="fill:#162039"></path><path d="M172,140.07a14.67,14.67,0,1,0,13.87-15.43A14.67,14.67,0,0,0,172,140.07Z" style="fill:#263238"></path><path d="M167.53,143.16,164,134.92a5.5,5.5,0,0,0-4.46,1.84c-1.85,2.1-.43,8.3,2.33,14.3,0,0,3,11,4,12.81a5.08,5.08,0,0,0,3,2.2Z" style="fill:#263238"></path><path d="M167.7,151.27c-.87.58-2.24-1.08-3.41-2.17s-4.86-2.49-6.46,1.4,2.06,8.89,4.95,9.63c5,1.28,5.55-1.9,5.55-1.9l1.32,17.65s3.62,7.68,12.37,8.39,6.58-6.35,3.54-9.71l-.3-5.37a31.55,31.55,0,0,0,6.62,0c3.57-.75,5.69-3.72,6.57-7.67,1.43-6.36,1.82-11.45-.32-23.69-2.35-13.42-18.06-12.72-26.26-6.93S167.7,151.27,167.7,151.27Z" style="fill:#ffbda7"></path><path d="M167.78,152.77c-.46,0-2.32-2.72-3.49-3.67-1.62-1.33-.31-14.18-.31-14.18a6.06,6.06,0,0,1,1.15-6.53c2-2.44,5.53-2.89,11.52-4.16,3-.63,6.47-1,9.4-1.74a30.18,30.18,0,0,0,8.65-3.24,2.67,2.67,0,0,1,1.65-.52,1.57,1.57,0,0,1,1.1.83,3,3,0,0,1,.32,1.38,5.38,5.38,0,0,1-.18,1.49c-.08.29-.62,1.17-.48,1.42.33.59,2.61-.56,3.06-.72a.48.48,0,0,1,.35,0,.39.39,0,0,1,.19.21,5.61,5.61,0,0,1,0,4.91,13,13,0,0,1-4.25,5.08,15.69,15.69,0,0,1-6.45,2.53,61,61,0,0,1-12.65.77c-1.06,0-2.11-.11-3.16-.21a4.56,4.56,0,0,0-2.23,0c-.8.39-1,1.55-1.19,2.32-.26,1.16-.41,2.33-.58,3.5C169.59,146.07,169.29,152.66,167.78,152.77Z" style="fill:#263238"></path><path d="M164.05,135.91l-5.58-2.62a3,3,0,0,1,4-1.58A3.25,3.25,0,0,1,164.05,135.91Z" style="fill:#263238"></path><path d="M185.26,169.19s-8.13-1.2-11-2.54a9.26,9.26,0,0,1-4.09-3.64,12.61,12.61,0,0,0,2.45,4.42c2.19,2.52,12.77,3.9,12.77,3.9Z" style="fill:#f0997a"></path><path d="M183,148.48a1.62,1.62,0,1,1-1.7-1.6A1.64,1.64,0,0,1,183,148.48Z" style="fill:#263238"></path><path d="M180,142.57l-2.62,3.36a2.23,2.23,0,0,1-.37-3.07A2.08,2.08,0,0,1,180,142.57Z" style="fill:#263238"></path><path d="M184.81,160.65a2.13,2.13,0,1,1-2.24-2A2.12,2.12,0,0,1,184.81,160.65Z" style="fill:#f0997a"></path><path d="M196.28,142.63l-3.5-1.89a1.92,1.92,0,0,1,2.64-.85A2.09,2.09,0,0,1,196.28,142.63Z" style="fill:#263238"></path><path d="M195.6,146.55a1.63,1.63,0,0,1-1.52,1.75,1.68,1.68,0,1,1,1.52-1.75Z" style="fill:#263238"></path><polygon points="187.41 146.47 189.3 156.69 194.44 154.16 187.41 146.47" style="fill:#f0997a"></polygon><path d="M206.59,204.86c-.46-10.81-1.3-20.36-5.32-25.43s-6.19-6-15.73-5.89v.61a3.64,3.64,0,0,1,2.72,1.61,56.21,56.21,0,0,1,7.34,16.31c2.77,10.5,3.24,34,3.39,46.59s0,22.8,0,22.8,6.38-1.49,8.36-4.69C207.35,256.77,207,215.67,206.59,204.86ZM175,187.07c-1.36-5.76-4.17-9.55-5.43-12.49l-15,2A11.47,11.47,0,0,0,147.94,188l3.13,35.41-.87,33.53c6.81,10.59,27.14,8.63,27.14,8.63s.58-15.08-.08-44.22C176.9,205,176.71,194.41,175,187.07Z" style="fill:#455a64"></path><path d="M175.55,189.91c-.79-3.7-1.22-10.58-1.86-12s-4.2-4.14-4.34-6l-.3-4.14s-1.81-.28-2.36,1.11-4.79,6.65-4.79,6.65.2,5.61,1.58,8.74,3.5,4.48,4.28,4.25c.59-.17,2.07-4.43,2.79-6.07.89-2.05,1.1-2.92,2.06-.89C173.37,183.23,175.55,189.91,175.55,189.91Z" style="fill:#37474f"></path><path d="M194.27,187.8c1,3.11-1.39-12.76-3-15.2s-6-3.41-6-3.41l.28,5a4.47,4.47,0,0,1,2.69,1.87A52.47,52.47,0,0,1,194.27,187.8Z" style="fill:#37474f"></path><path d="M159.32,200.76l14.22-1.2s.43,9,.43,11.38c0,1.49-2.37,3.94-4.13,5.56a3.71,3.71,0,0,1-4.18.59c-2.11-1.07-4.94-2.8-5.21-4.54C160,209.76,159.32,200.76,159.32,200.76Z" style="fill:#37474f"></path><path d="M200.46,198.47h6.13s.75,7.33.75,11.28c0,2.85-.26,4.65-.78,4.64-1.08,0-4.71-2.47-5.07-5.29C201.2,206.77,200.46,198.47,200.46,198.47Z" style="fill:#37474f"></path><path d="M176,192.86a254,254,0,0,0-27.22,4.26l.09,1a255.32,255.32,0,0,1,27.24-4.27C176.05,193.52,176,193.19,176,192.86Z" style="fill:#e0e0e0"></path><path d="M205.74,193.22c-3-.35-6.35-.66-10.06-.84.08.33.16.66.24,1,3.66.19,7,.5,9.94.84Z" style="fill:#e0e0e0"></path><path d="M155,176.48c-5,0-10.89-.22-14.2,7-1.07,2.37-5.52,17.12-9.2,29.95-6-9.65-11.09-17.83-11.82-19.36-2-4.09-2-6.85-4-11.06a36,36,0,0,1-2.64-7.25c-.47-1.69-2-.44-2.49.31a8,8,0,0,0-1.42,4.34c0,1.38.19,3.07-.95,3.84-1,.64-2.22.19-3.25-.29a65,65,0,0,1-11-6.61,6.54,6.54,0,0,0-1.85-1.09,2,2,0,0,0-2,.36,2,2,0,0,0-.39,2,5.85,5.85,0,0,0,1,1.83,3.69,3.69,0,0,0-1.66,3.13c0,.88.23,1.7.19,2.57a7.3,7.3,0,0,0,.3,2.94,7.72,7.72,0,0,0,2.54,3.11,38.87,38.87,0,0,0,7.09,4.72q2.49,1.29,4.95,2.64a16.62,16.62,0,0,1,4.38,2.83c2.13,2.36,3.47,5.29,4.95,8.07,2.29,4.29,6.26,16.4,12.88,25,3.81,5,9.66,7,13.58.93a65.19,65.19,0,0,0,5.76-11.17c5.09-13.56,8.78-24.73,8.78-24.73S158.68,187.88,155,176.48Z" style="fill:#ffbda7"></path><path d="M156,176.35c-3.42-.2-7.83-.16-10.93,1.74-3.87,2.38-5,5.6-6.45,10.11s-5.86,19.38-5.86,19.38L150,216l6.34-17.88S158.89,189.21,156,176.35Z" style="fill:#37474f"></path><path d="M131.59,213.47a3.59,3.59,0,0,1,1-.1c1.17,0,2.63.06,8.13,4.95s4.64,8.09,4.64,8.09l-.4,1s1.25.57,2.24-1.12a99.28,99.28,0,0,0,4.6-10.34c.27-1.16-2.41-8-8.31-10.81s-9.64-2.05-10.45-1.25-2.39,8.06-2.39,8.06Z" style="fill:#263238"></path><path d="M210,148.64a.91.91,0,0,1-.35-1.76l6.7-2.85a.92.92,0,0,1,.72,1.69l-6.71,2.85A.92.92,0,0,1,210,148.64Z" style="fill:#e0e0e0"></path><path d="M218.74,157.35h-.13l-9.17-1.26a.91.91,0,0,1,.25-1.81l9.17,1.25a.91.91,0,0,1-.12,1.82Z" style="fill:#e0e0e0"></path><path d="M214,167.32a.9.9,0,0,1-.51-.16l-6-4a.92.92,0,0,1-.25-1.27.91.91,0,0,1,1.27-.24l6,4a.92.92,0,0,1,.24,1.28A.9.9,0,0,1,214,167.32Z" style="fill:#e0e0e0"></path></g></g><g id="freepik--light-bulb--inject-44"><g id="freepik--Idea--inject-44"><g id="freepik--light--inject-44"><path d="M338,88.18a2.94,2.94,0,1,1-1.72-3.79A2.94,2.94,0,0,1,338,88.18Z" style="fill:#37474f"></path><path d="M331.84,86.08c-1.43-1.74-.79-3.45,1.44-3.82a7.81,7.81,0,0,1,6.61,2.5c1.42,1.74.78,3.45-1.44,3.81A7.8,7.8,0,0,1,331.84,86.08Z" style="fill:#455a64"></path><path d="M332.11,85.05c-1.47-1.8-.81-3.56,1.48-3.94a8.09,8.09,0,0,1,6.82,2.57c1.47,1.8.81,3.56-1.49,3.93A8,8,0,0,1,332.11,85.05Z" style="fill:#37474f"></path><path d="M332.39,84c-1.51-1.85-.83-3.66,1.53-4a8.28,8.28,0,0,1,7,2.64c1.52,1.85.84,3.67-1.52,4.06A8.31,8.31,0,0,1,332.39,84Z" style="fill:#455a64"></path><path d="M332.68,82.88c-1.56-1.9-.85-3.77,1.58-4.17a8.55,8.55,0,0,1,7.24,2.72c1.56,1.91.86,3.78-1.58,4.18A8.56,8.56,0,0,1,332.68,82.88Z" style="fill:#37474f"></path><path d="M333,81.75c-1.6-2-.88-3.86,1.61-4.27A8.7,8.7,0,0,1,342,80.27c1.6,1.94.88,3.85-1.61,4.26A8.72,8.72,0,0,1,333,81.75Z" style="fill:#455a64"></path><path d="M348.82,51a14,14,0,0,0-18.08,8.18c-3.93,10.42,4,15.39,2.44,19.59a2.41,2.41,0,0,0,.63,2.35,7.57,7.57,0,0,0,6.4,2.42,2.41,2.41,0,0,0,2-1.35h0c1.58-4.2,10.83-2.69,14.76-13.12A14,14,0,0,0,348.82,51Z" style="fill:#162039"></path><g style="opacity:0.6000000000000001"><path d="M348.82,51a14,14,0,0,0-18.08,8.18c-3.93,10.42,4,15.39,2.44,19.59a2.41,2.41,0,0,0,.63,2.35,7.57,7.57,0,0,0,6.4,2.42,2.41,2.41,0,0,0,2-1.35h0c1.58-4.2,10.83-2.69,14.76-13.12A14,14,0,0,0,348.82,51Z" style="fill:#fff"></path></g><path d="M334.82,80.89c-1-1.27-.58-2.51,1-2.78a5.71,5.71,0,0,1,4.82,1.82c1,1.27.57,2.51-1.05,2.78A5.67,5.67,0,0,1,334.82,80.89Z" style="fill:#162039"></path><path d="M339.62,80.74a.48.48,0,0,1-.28-.6A34.23,34.23,0,0,1,343.09,73a16.64,16.64,0,0,1,1.44-1.84,6.37,6.37,0,0,1-.93-1A8.1,8.1,0,0,1,342.41,68a8.35,8.35,0,0,1-2.29.81,6.62,6.62,0,0,1-1.35.12,17.92,17.92,0,0,1-.13,2.34,33.62,33.62,0,0,1-1.91,7.85.48.48,0,0,1-.62.26.48.48,0,0,1-.26-.62,33.67,33.67,0,0,0,1.84-7.61,15.24,15.24,0,0,0,.12-2.32,3,3,0,0,1-2.21-1.67,1.53,1.53,0,0,1,.5-1.91,1.27,1.27,0,0,1,1.41-.05,3.6,3.6,0,0,1,1.2,2.78,5.37,5.37,0,0,0,1.22-.11,7.33,7.33,0,0,0,2.21-.8,3.49,3.49,0,0,1,.29-2.75,1.26,1.26,0,0,1,1.53-.43,1.25,1.25,0,0,1,.86,1.33,3.45,3.45,0,0,1-1.59,2.26,7.4,7.4,0,0,0,1.12,2.06,5.52,5.52,0,0,0,.85.88,3.66,3.66,0,0,1,2.74-1.29,1.26,1.26,0,0,1,1,1,1.51,1.51,0,0,1-.88,1.76,3,3,0,0,1-2.76-.2,15.82,15.82,0,0,0-1.45,1.82,33.51,33.51,0,0,0-3.63,6.94.48.48,0,0,1-.61.29ZM336.94,66a.31.31,0,0,0-.31.07c-.33.21-.2.63-.15.75a1.89,1.89,0,0,0,1.25,1,2.7,2.7,0,0,0-.72-1.8Zm9.11,5a1.94,1.94,0,0,0,1.61.06c.11-.06.49-.28.39-.66-.06-.22-.17-.26-.26-.28C347.47,70.06,346.85,70.3,346.05,71Zm-2.42-6.17a.32.32,0,0,0-.44.11,2.3,2.3,0,0,0-.2,1.59,2.33,2.33,0,0,0,.89-1.33A.32.32,0,0,0,343.63,64.82Z" style="fill:#fff"></path></g><path d="M350.78,46.06a.69.69,0,0,1-.24-.05.92.92,0,0,1-.54-1.18l1.66-4.48a.91.91,0,0,1,1.18-.54.92.92,0,0,1,.54,1.18l-1.66,4.48A.92.92,0,0,1,350.78,46.06Z" style="fill:#e0e0e0"></path><path d="M340.27,45.09a.91.91,0,0,1-.82-.75l-.81-4.71a.92.92,0,0,1,1.81-.31l.81,4.7a.92.92,0,0,1-.75,1.06A.65.65,0,0,1,340.27,45.09Z" style="fill:#e0e0e0"></path><path d="M330.69,49.51a.89.89,0,0,1-.63-.33L327,45.5a.92.92,0,0,1,.11-1.29.93.93,0,0,1,1.3.12L331.47,48a.92.92,0,0,1-.12,1.29A.9.9,0,0,1,330.69,49.51Z" style="fill:#e0e0e0"></path><path d="M324.59,58.12a.69.69,0,0,1-.24,0l-4.48-1.66a.9.9,0,0,1-.54-1.17.91.91,0,0,1,1.17-.55L325,56.35a.92.92,0,0,1-.4,1.77Z" style="fill:#e0e0e0"></path><path d="M359.8,84.55a.91.91,0,0,1-.63-.33l-3.05-3.67a.92.92,0,0,1,1.41-1.18l3.05,3.68a.92.92,0,0,1-.78,1.5Z" style="fill:#e0e0e0"></path><path d="M367.32,73.91a.69.69,0,0,1-.24,0L362.6,72.2a.91.91,0,1,1,.64-1.71l4.48,1.65a.92.92,0,0,1-.4,1.77Z" style="fill:#e0e0e0"></path><path d="M363.81,61.75a.92.92,0,0,1-.07-1.82l4.71-.8a.9.9,0,0,1,1.05.74.91.91,0,0,1-.74,1.06l-4.71.81A1,1,0,0,1,363.81,61.75Z" style="fill:#e0e0e0"></path><path d="M359.4,52.16a.92.92,0,0,1-.51-1.62l3.68-3a.92.92,0,0,1,1.17,1.41L360.06,52A.9.9,0,0,1,359.4,52.16Z" style="fill:#e0e0e0"></path></g></g><g id="freepik--Shines--inject-44"><g id="freepik--Shine--inject-44"><path d="M366.25,102.83a.63.63,0,0,1-.62-.57l0-.59a3.11,3.11,0,0,0-2.88-2.88l-.6-.05a.61.61,0,0,1,0-1.22l.6,0h0a3.11,3.11,0,0,0,2.88-2.88l0-.59a.63.63,0,0,1,.62-.57h0a.61.61,0,0,1,.61.57l0,.59a3.11,3.11,0,0,0,2.88,2.88l.6,0a.61.61,0,0,1,0,1.22l-.6.05a3.11,3.11,0,0,0-2.88,2.88l0,.59a.61.61,0,0,1-.61.57Zm-1.6-4.7a4.28,4.28,0,0,1,1.6,1.59,4.33,4.33,0,0,1,1.59-1.59,4.33,4.33,0,0,1-1.59-1.59A4.28,4.28,0,0,1,364.65,98.13Z" style="fill:#162039"></path><path d="M380.59,93.26a3.94,3.94,0,1,1,3.94-3.94A3.94,3.94,0,0,1,380.59,93.26Zm0-6.65a2.72,2.72,0,1,0,2.71,2.71A2.71,2.71,0,0,0,380.59,86.61Z" style="fill:#162039"></path><path d="M383.87,104.12a.61.61,0,0,1-.62-.61v-2.05a.62.62,0,0,1,.62-.62.61.61,0,0,1,.61.62v2.05A.61.61,0,0,1,383.87,104.12Z" style="fill:#162039"></path><path d="M382.64,105.35h-2.05a.62.62,0,0,1-.62-.62.61.61,0,0,1,.62-.61h2.05a.61.61,0,0,1,.61.61A.61.61,0,0,1,382.64,105.35Z" style="fill:#162039"></path><path d="M383.87,108.75a.62.62,0,0,1-.62-.62v-2a.62.62,0,0,1,.62-.62.61.61,0,0,1,.61.62v2A.61.61,0,0,1,383.87,108.75Z" style="fill:#162039"></path><path d="M387.26,105.35h-2.05a.61.61,0,0,1-.61-.62.61.61,0,0,1,.61-.61h2.05a.61.61,0,0,1,.62.61A.62.62,0,0,1,387.26,105.35Z" style="fill:#162039"></path></g><g id="freepik--shine--inject-44"><path d="M311.88,46.46a.61.61,0,0,1-.61-.57l0-.59a3.11,3.11,0,0,0-2.89-2.88l-.59-.05a.61.61,0,0,1,0-1.22l.59,0h0a3.11,3.11,0,0,0,2.89-2.88l0-.59a.61.61,0,0,1,.61-.57.63.63,0,0,1,.62.57l0,.59a3.11,3.11,0,0,0,2.88,2.88l.6,0a.61.61,0,0,1,0,1.22l-.59.05a3.11,3.11,0,0,0-2.88,2.88l0,.59A.63.63,0,0,1,311.88,46.46Zm-1.59-4.7a4.33,4.33,0,0,1,1.59,1.59,4.33,4.33,0,0,1,1.59-1.59,4.33,4.33,0,0,1-1.59-1.59A4.33,4.33,0,0,1,310.29,41.76Z" style="fill:#162039"></path><path d="M304.47,60.32a3.94,3.94,0,1,1,3.94-3.94A3.95,3.95,0,0,1,304.47,60.32Zm0-6.65a2.71,2.71,0,1,0,2.71,2.71A2.71,2.71,0,0,0,304.47,53.67Z" style="fill:#162039"></path><path d="M292.22,43.33a.61.61,0,0,1-.61-.61V40.66a.61.61,0,0,1,.61-.61.62.62,0,0,1,.62.61v2.06A.61.61,0,0,1,292.22,43.33Z" style="fill:#162039"></path><path d="M291,44.56H289a.62.62,0,0,1-.62-.62.61.61,0,0,1,.62-.61H291a.61.61,0,0,1,.61.61A.61.61,0,0,1,291,44.56Z" style="fill:#162039"></path><path d="M292.22,48a.61.61,0,0,1-.61-.61V45.29a.61.61,0,0,1,.61-.62.62.62,0,0,1,.62.62v2.05A.61.61,0,0,1,292.22,48Z" style="fill:#162039"></path><path d="M295.62,44.56h-2.05a.61.61,0,0,1-.61-.62.61.61,0,0,1,.61-.61h2.05a.61.61,0,0,1,.62.61A.62.62,0,0,1,295.62,44.56Z" style="fill:#162039"></path></g><g id="freepik--shine--inject-44"><path d="M162.89,92.67h0a.62.62,0,0,1-.64-.54l-.07-.59h0a3.1,3.1,0,0,0-3-2.76l-.59,0a.62.62,0,0,1,0-1.23l.59-.07a3.11,3.11,0,0,0,2.76-3l0-.6a.63.63,0,0,1,.58-.59.61.61,0,0,1,.64.54l.07.59a3.11,3.11,0,0,0,3,2.76l.6,0a.61.61,0,0,1,.05,1.22l-.6.07a3.11,3.11,0,0,0-2.75,3l0,.6A.62.62,0,0,1,162.89,92.67ZM161.08,88a4.34,4.34,0,0,1,1.66,1.52,4.38,4.38,0,0,1,1.52-1.65,4.26,4.26,0,0,1-1.65-1.53A4.36,4.36,0,0,1,161.08,88Z" style="fill:#162039"></path><path d="M173.54,111.37a3.89,3.89,0,0,1-2.35-.56,3.93,3.93,0,1,1,2.35.56Zm-.53-6.63a2.14,2.14,0,0,0-.43.07,2.72,2.72,0,0,0-2,3.28,2.71,2.71,0,1,0,4-3A2.64,2.64,0,0,0,173,104.74Z" style="fill:#162039"></path><path d="M150.4,106.28h0l-2,.13a.62.62,0,1,1-.07-1.23l2-.12a.62.62,0,0,1,.66.57A.63.63,0,0,1,150.4,106.28Z" style="fill:#162039"></path><path d="M151.83,109.48h0a.62.62,0,0,1-.65-.58l-.13-2.05a.64.64,0,0,1,.57-.65.62.62,0,0,1,.65.58l.13,2A.62.62,0,0,1,151.83,109.48Z" style="fill:#162039"></path><path d="M155,106h0l-2,.13a.61.61,0,0,1-.65-.57.63.63,0,0,1,.57-.66l2.05-.12a.61.61,0,0,1,.65.57A.61.61,0,0,1,155,106Z" style="fill:#162039"></path><path d="M151.54,104.86h0a.61.61,0,0,1-.65-.57l-.13-2.05a.62.62,0,0,1,1.23-.08l.12,2A.61.61,0,0,1,151.54,104.86Z" style="fill:#162039"></path></g></g><g id="freepik--paper-planes--inject-44"><g id="freepik--paper-planes--inject-44"><g id="freepik--paper-plane--inject-44"><polygon points="53.23 229.72 87.37 209.54 63.67 235.88 53.23 229.72" style="fill:#162039"></polygon><polygon points="87.37 209.54 49.23 225.48 38.79 219.31 87.37 209.54" style="fill:#162039"></polygon><polygon points="49.23 225.48 51.56 235.3 53.23 229.72 87.37 209.54 49.23 225.48" style="fill:#162039"></polygon><polygon points="49.23 225.48 51.56 235.3 53.23 229.72 87.37 209.54 49.23 225.48" style="opacity:0.2"></polygon><polygon points="51.56 235.3 56.71 231.77 53.23 229.72 51.56 235.3" style="fill:#162039"></polygon><polygon points="53.23 229.72 56.71 231.77 55.89 232.33 53.23 229.72" style="opacity:0.2"></polygon><path d="M43.27,238.32a.67.67,0,0,1-.46-1.16c.69-.65,1.38-1.25,2.06-1.8a.67.67,0,0,1,.94.1.68.68,0,0,1-.1.95c-.65.52-1.32,1.1-2,1.73A.69.69,0,0,1,43.27,238.32Z" style="fill:#e0e0e0"></path><path d="M93.41,315.11c-1.32,0-2.63,0-3.92-.06a.68.68,0,0,1,.05-1.35q2.56.09,5.25.06h0a.67.67,0,0,1,.67.67.66.66,0,0,1-.66.67ZM99.2,315a.67.67,0,0,1,0-1.34c1.71-.08,3.48-.2,5.24-.35a.69.69,0,0,1,.73.61.68.68,0,0,1-.61.73c-1.78.15-3.57.27-5.3.35Zm-14.08-.16h-.05c-1.77-.13-3.55-.31-5.29-.53A.67.67,0,0,1,80,313c1.72.22,3.47.39,5.22.52a.67.67,0,0,1,0,1.34Zm23.73-.64a.67.67,0,0,1-.08-1.34c1.71-.21,3.46-.45,5.21-.72a.67.67,0,0,1,.2,1.33c-1.76.27-3.53.51-5.25.72Zm-33.33-.53H75.4c-1.77-.31-3.53-.66-5.21-1.06a.66.66,0,0,1-.5-.81.67.67,0,0,1,.8-.5c1.66.39,3.39.74,5.14,1.05a.67.67,0,0,1-.11,1.33Zm-9.44-2.17a.55.55,0,0,1-.18,0c-1.72-.5-3.43-1.06-5.07-1.66a.67.67,0,1,1,.46-1.26c1.61.59,3.29,1.14,5,1.63a.67.67,0,0,1,.46.83A.68.68,0,0,1,66.08,311.47ZM57,308.2a.86.86,0,0,1-.27-.05c-1.65-.72-3.26-1.5-4.8-2.32a.67.67,0,1,1,.63-1.18c1.5.8,3.09,1.56,4.71,2.27A.67.67,0,0,1,57,308.2Zm-8.57-4.49a.68.68,0,0,1-.36-.1c-1.53-1-3-2-4.39-3a.67.67,0,0,1-.13-.94.68.68,0,0,1,.94-.13c1.36,1,2.8,2,4.3,3a.67.67,0,0,1-.36,1.24Zm-7.73-5.81a.66.66,0,0,1-.45-.18,48.22,48.22,0,0,1-3.77-3.8.69.69,0,0,1,.06-.95.68.68,0,0,1,.95.06,47.24,47.24,0,0,0,3.66,3.7.67.67,0,0,1,0,.95A.7.7,0,0,1,40.68,297.9Zm-6.45-7.2a.66.66,0,0,1-.55-.28,38.57,38.57,0,0,1-2.82-4.57.68.68,0,1,1,1.2-.62,36.58,36.58,0,0,0,2.71,4.41.67.67,0,0,1-.15.94A.71.71,0,0,1,34.23,290.7Zm-4.54-8.52a.67.67,0,0,1-.63-.44A28.4,28.4,0,0,1,28,277.85c-.1-.44-.18-.88-.26-1.33A.67.67,0,0,1,29,276.3c.07.42.15.85.24,1.28a29.64,29.64,0,0,0,1.06,3.71.65.65,0,0,1-.4.85A.62.62,0,0,1,29.69,282.18Zm-1.78-9.47a.67.67,0,0,1-.67-.65c0-.43,0-.86,0-1.28a35.29,35.29,0,0,1,.23-4.09.67.67,0,1,1,1.33.15,35,35,0,0,0-.22,3.94c0,.41,0,.82,0,1.23a.69.69,0,0,1-.65.7Zm.95-9.62h-.15a.67.67,0,0,1-.51-.81,44,44,0,0,1,1.52-5.14.67.67,0,0,1,.86-.4.68.68,0,0,1,.4.86,43.21,43.21,0,0,0-1.47,5A.66.66,0,0,1,28.86,263.09ZM32,254a.58.58,0,0,1-.28-.07.66.66,0,0,1-.32-.89c.75-1.59,1.59-3.18,2.51-4.72a.67.67,0,0,1,.92-.23.68.68,0,0,1,.24.92c-.9,1.5-1.73,3.05-2.46,4.6A.67.67,0,0,1,32,254Zm4.9-8.35a.71.71,0,0,1-.39-.12.67.67,0,0,1-.15-.94,52.66,52.66,0,0,1,3.32-4.19.67.67,0,0,1,.95-.06.68.68,0,0,1,.06.95c-1.13,1.28-2.22,2.66-3.24,4.08A.66.66,0,0,1,36.93,245.62Z" style="fill:#e0e0e0"></path><path d="M118.48,312.7a.67.67,0,0,1-.12-1.33l2.63-.51a.67.67,0,0,1,.26,1.32l-2.64.51Z" style="fill:#e0e0e0"></path></g><g id="freepik--paper-plane--inject-44"><polygon points="421.26 223.28 461.45 203.17 477.47 210.25 421.26 223.28" style="fill:#162039"></polygon><polygon points="421.26 223.28 456.67 199.6 450.33 190.49 421.26 223.28" style="fill:#162039"></polygon><polygon points="456.67 199.6 456 205.9 421.26 223.28 456.67 199.6" style="fill:#162039"></polygon><polygon points="456.67 199.6 456 205.9 421.26 223.28 456.67 199.6" style="opacity:0.2"></polygon><path d="M462.23,199.53a.68.68,0,0,1-.42-1.2l.47.49.37.56A.66.66,0,0,1,462.23,199.53Zm3.39-3a.63.63,0,0,1-.46-.19.67.67,0,0,1,0-1,27.71,27.71,0,0,0,3.24-4.1.67.67,0,0,1,1.13.73,29.16,29.16,0,0,1-3.41,4.3A.64.64,0,0,1,465.62,196.53Zm5.47-8.12a.71.71,0,0,1-.28-.06.69.69,0,0,1-.33-.89,31.64,31.64,0,0,0,1.78-5,.67.67,0,0,1,.82-.47.68.68,0,0,1,.48.82A32.83,32.83,0,0,1,471.7,188,.66.66,0,0,1,471.09,188.41Zm2.69-9.44h-.09a.67.67,0,0,1-.57-.75,35.93,35.93,0,0,0,.29-4.54V173a.66.66,0,0,1,.65-.68h0a.67.67,0,0,1,.67.65c0,.25,0,.5,0,.75a36.77,36.77,0,0,1-.31,4.71A.68.68,0,0,1,473.78,179Zm-.07-9.81a.66.66,0,0,1-.66-.57,37.34,37.34,0,0,0-1.13-5.15.67.67,0,0,1,1.28-.38,36.92,36.92,0,0,1,1.17,5.34.67.67,0,0,1-.56.76ZM471,159.72a.65.65,0,0,1-.61-.41,37.71,37.71,0,0,0-2.42-4.68.67.67,0,0,1,1.15-.7,39.16,39.16,0,0,1,2.5,4.86.68.68,0,0,1-.35.88A.86.86,0,0,1,471,159.72Zm-5-8.46a.69.69,0,0,1-.54-.26,40.41,40.41,0,0,0-3.47-4,.68.68,0,0,1,0-.95.67.67,0,0,1,.95,0,43.17,43.17,0,0,1,3.59,4.1.67.67,0,0,1-.13.94A.61.61,0,0,1,466.07,151.26Zm-6.84-7a.66.66,0,0,1-.43-.16c-.81-.67-1.66-1.32-2.52-1.93-.57-.41-1.15-.81-1.75-1.2a.67.67,0,0,1-.19-.93.66.66,0,0,1,.93-.19c.61.4,1.2.81,1.79,1.23.88.63,1.76,1.3,2.59,2a.67.67,0,0,1,.1.94A.7.7,0,0,1,459.23,144.22Zm-8.16-5.48a.68.68,0,0,1-.33-.09c-1.5-.83-3.1-1.63-4.75-2.37a.67.67,0,0,1-.34-.89.68.68,0,0,1,.89-.33c1.68.76,3.32,1.57,4.85,2.42a.67.67,0,0,1,.27.91A.7.7,0,0,1,451.07,138.74Zm-8.94-4.11a.62.62,0,0,1-.23,0c-1.63-.62-3.32-1.2-5-1.73a.67.67,0,0,1-.44-.84.67.67,0,0,1,.83-.45c1.75.54,3.47,1.13,5.12,1.76a.67.67,0,0,1-.24,1.3Zm-9.38-2.95-.17,0c-1.68-.43-3.43-.82-5.2-1.18a.67.67,0,1,1,.26-1.31c1.8.35,3.57.76,5.28,1.19a.68.68,0,0,1-.17,1.33Zm-54.05-.12a.67.67,0,0,1-.17-1.32c1.71-.44,3.48-.85,5.27-1.2a.67.67,0,0,1,.26,1.32c-1.76.35-3.51.74-5.19,1.18Zm44.4-1.85H423c-1.73-.27-3.51-.5-5.29-.69a.67.67,0,1,1,.14-1.34c1.8.2,3.61.43,5.36.7a.67.67,0,0,1-.11,1.34Zm-34.76-.1a.67.67,0,0,1-.1-1.34c1.75-.26,3.55-.49,5.35-.67a.68.68,0,0,1,.74.6.66.66,0,0,1-.6.73c-1.78.18-3.56.41-5.29.67Zm25-1h-.05c-1.76-.12-3.56-.2-5.33-.23a.69.69,0,0,1-.66-.69A.68.68,0,0,1,408,127h0c1.79,0,3.61.12,5.39.24a.68.68,0,0,1,0,1.35Zm-15.2,0a.68.68,0,0,1-.67-.63.69.69,0,0,1,.63-.72c1.78-.1,3.59-.17,5.39-.2h0a.66.66,0,0,1,.67.66.67.67,0,0,1-.66.68c-1.78,0-3.57.1-5.33.2Z" style="fill:#e0e0e0"></path></g></g></g></svg>