<svg xmlns="http://www.w3.org/2000/svg" viewBox="0 0 500 500"><g id="freepik--background-simple--inject-15"><path d="M471.34,263.11C488,156.69,399.2,49.42,282.63,36.1c-1.45-.17-2.9-.32-4.36-.47-81.45-8.09-155.9,54.13-177.19,101.58s-77,92.6-56.35,180.56S121.48,452.58,253,466.45s155.79-23.74,190.7-105.92A420.16,420.16,0,0,0,471.34,263.11Z" style="fill:#162039"></path><path d="M471.34,263.11C488,156.69,399.2,49.42,282.63,36.1c-1.45-.17-2.9-.32-4.36-.47-81.45-8.09-155.9,54.13-177.19,101.58s-77,92.6-56.35,180.56S121.48,452.58,253,466.45s155.79-23.74,190.7-105.92A420.16,420.16,0,0,0,471.34,263.11Z" style="fill:#fff;opacity:0.8"></path></g><g id="freepik--Bushes--inject-15"><path d="M453.32,406c-1.72-14.42-12.89-43-28.93-51-17-8.5-29.75,10.93-60.1,24.89s-22.47-10.32-54-29.14-35.82,7.28-48.57,13.36c-13.18,6.28-21-16.81-24.07-25.38-6.08-16.75-13.16-31.1-28.89-41.05-24.32-15.35-65.9-14.14-78.76,15.61-3.86,8.93-2.47,25.33-12.17,30.18-14.57,7.28-52.21-1.22-54.63,23.06-.84,8.41,1.68,15.9,5.34,22.09,1.06,3.22,1.89,6.62,1.33,8.27-1.21,3.64-9.1-4.86-15.78-.61a30.1,30.1,0,0,0-9,9.72Z" style="fill:#162039"></path><path d="M167.36,322.11s-1.05,4.86,1.13,8.89a27.7,27.7,0,0,0,5.16,6.71S175.82,330,167.36,322.11Z" style="fill:#fff"></path><path d="M126.65,365s3.75,3.27,8.33,3.3a27.68,27.68,0,0,0,8.36-1.27S137.68,361.44,126.65,365Z" style="fill:#fff"></path><path d="M86.89,359.53s3.75,3.26,8.33,3.3a27.5,27.5,0,0,0,8.36-1.28S97.92,356,86.89,359.53Z" style="fill:#fff"></path><path d="M121,385.14s4.54,2,8.93.68a27.72,27.72,0,0,0,7.61-3.7S130.42,378.45,121,385.14Z" style="fill:#fff"></path><path d="M80.58,380s4.54,2,8.93.68a27.53,27.53,0,0,0,7.61-3.7S90.05,373.33,80.58,380Z" style="fill:#fff"></path><path d="M148.09,387.23s5-.06,8.41-3.09a27.68,27.68,0,0,0,5.38-6.53S153.92,377.22,148.09,387.23Z" style="fill:#fff"></path><path d="M91.62,401.61s5-.07,8.4-3.09A27.68,27.68,0,0,0,105.4,392S97.44,391.59,91.62,401.61Z" style="fill:#fff"></path><path d="M136.64,327.14s1.13,4.84,4.82,7.55a27.49,27.49,0,0,0,7.53,3.85S147.67,330.69,136.64,327.14Z" style="fill:#fff"></path><path d="M217.64,323.55s-4.92.7-7.95,4.14a27.73,27.73,0,0,0-4.5,7.16S213.13,334.22,217.64,323.55Z" style="fill:#fff"></path><path d="M234.69,349.11s-4.86-1-8.89,1.14a27.41,27.41,0,0,0-6.7,5.17S226.77,357.57,234.69,349.11Z" style="fill:#fff"></path><path d="M233,378.15s-3.5-3.52-8.07-3.89a27.36,27.36,0,0,0-8.43.68S221.77,380.93,233,378.15Z" style="fill:#fff"></path><path d="M214,393.73s-2-4.54-6.15-6.51a27.47,27.47,0,0,0-8.12-2.37S202.49,392.31,214,393.73Z" style="fill:#fff"></path><path d="M204,346.61s-4.92.7-7.94,4.14a27.61,27.61,0,0,0-4.51,7.16S199.47,357.29,204,346.61Z" style="fill:#fff"></path><path d="M123.38,340.21s2.19,4.46,6.4,6.27a27.61,27.61,0,0,0,8.21,2.06S134.93,341.18,123.38,340.21Z" style="fill:#fff"></path><path d="M193.53,316.7s-4,3-5,7.44a27.9,27.9,0,0,0-.52,8.45S194.69,328.23,193.53,316.7Z" style="fill:#fff"></path><path d="M178.51,302.65s-2.26,4.42-1.19,8.88a27.62,27.62,0,0,0,3.26,7.8S184.64,312.48,178.51,302.65Z" style="fill:#fff"></path><path d="M146,307.37s0,5,3,8.45a27.52,27.52,0,0,0,6.45,5.46S155.93,313.34,146,307.37Z" style="fill:#fff"></path><path d="M288.09,360a8.4,8.4,0,0,0,.66,5.16,16.23,16.23,0,0,0,3,3.9S293,364.56,288.09,360Z" style="fill:#fff"></path><path d="M264.46,384.86a8.38,8.38,0,0,0,4.83,1.92,16.2,16.2,0,0,0,4.86-.74S270.86,382.79,264.46,384.86Z" style="fill:#fff"></path><path d="M261.14,396.55a8.49,8.49,0,0,0,5.19.4,16.08,16.08,0,0,0,4.42-2.15S266.64,392.67,261.14,396.55Z" style="fill:#fff"></path><path d="M276.91,397.77a8.43,8.43,0,0,0,4.88-1.8,16.25,16.25,0,0,0,3.12-3.79S280.29,392,276.91,397.77Z" style="fill:#fff"></path><path d="M270.26,362.87a8.39,8.39,0,0,0,2.79,4.38,15.93,15.93,0,0,0,4.38,2.24S276.66,364.93,270.26,362.87Z" style="fill:#fff"></path><path d="M317.29,360.79a8.36,8.36,0,0,0-4.61,2.4,16.07,16.07,0,0,0-2.62,4.16S314.67,367,317.29,360.79Z" style="fill:#fff"></path><path d="M327.19,375.63a8.4,8.4,0,0,0-5.16.66,16.05,16.05,0,0,0-3.89,3S322.59,380.54,327.19,375.63Z" style="fill:#fff"></path><path d="M326.22,392.49a8.39,8.39,0,0,0-4.69-2.26,15.94,15.94,0,0,0-4.89.4S319.69,394.1,326.22,392.49Z" style="fill:#fff"></path><path d="M315.17,401.54a8.4,8.4,0,0,0-3.57-3.78,16.2,16.2,0,0,0-4.72-1.38S308.49,400.72,315.17,401.54Z" style="fill:#fff"></path><path d="M309.36,374.18a8.36,8.36,0,0,0-4.61,2.4,16.07,16.07,0,0,0-2.62,4.16S306.74,380.38,309.36,374.18Z" style="fill:#fff"></path><path d="M262.56,370.46a8.42,8.42,0,0,0,3.71,3.64,16.2,16.2,0,0,0,4.77,1.2S269.26,371,262.56,370.46Z" style="fill:#fff"></path><path d="M303.29,356.81a8.48,8.48,0,0,0-2.9,4.32,16.21,16.21,0,0,0-.3,4.91S304,363.51,303.29,356.81Z" style="fill:#fff"></path><path d="M294.57,348.65a8.35,8.35,0,0,0-.69,5.15,16.1,16.1,0,0,0,1.89,4.54S298.13,354.36,294.57,348.65Z" style="fill:#fff"></path><path d="M275.69,351.39a8.44,8.44,0,0,0,1.73,4.91,16,16,0,0,0,3.75,3.17S281.46,354.86,275.69,351.39Z" style="fill:#fff"></path><path d="M405.54,370.92a8.44,8.44,0,0,0,.65,5.16,16.05,16.05,0,0,0,3,3.89S410.45,375.52,405.54,370.92Z" style="fill:#fff"></path><path d="M381.9,395.83a8.45,8.45,0,0,0,4.83,1.92,16.2,16.2,0,0,0,4.86-.74S388.3,393.75,381.9,395.83Z" style="fill:#fff"></path><path d="M387.7,373.84a8.36,8.36,0,0,0,2.8,4.38,15.8,15.8,0,0,0,4.37,2.24S394.1,375.9,387.7,373.84Z" style="fill:#fff"></path><path d="M434.73,371.75a8.41,8.41,0,0,0-4.61,2.41,15.94,15.94,0,0,0-2.62,4.15S432.11,378,434.73,371.75Z" style="fill:#fff"></path><path d="M444.63,386.6a8.4,8.4,0,0,0-5.16.66,16.05,16.05,0,0,0-3.89,3S440,391.51,444.63,386.6Z" style="fill:#fff"></path><path d="M443.66,403.46A8.38,8.38,0,0,0,439,401.2a16.17,16.17,0,0,0-4.9.39S437.13,405.07,443.66,403.46Z" style="fill:#fff"></path><path d="M426.8,385.15a8.36,8.36,0,0,0-4.61,2.4,16.07,16.07,0,0,0-2.62,4.16S424.18,391.35,426.8,385.15Z" style="fill:#fff"></path><path d="M380,381.43a8.42,8.42,0,0,0,3.71,3.64,16,16,0,0,0,4.77,1.19S386.7,382,380,381.43Z" style="fill:#fff"></path><path d="M420.73,367.78a8.43,8.43,0,0,0-2.9,4.32,16.15,16.15,0,0,0-.3,4.9S421.41,374.47,420.73,367.78Z" style="fill:#fff"></path><path d="M412,359.62a8.43,8.43,0,0,0-.69,5.15,16.1,16.1,0,0,0,1.89,4.54S415.57,365.33,412,359.62Z" style="fill:#fff"></path><path d="M393.13,362.36a8.44,8.44,0,0,0,1.73,4.91,16,16,0,0,0,3.75,3.17S398.9,365.82,393.13,362.36Z" style="fill:#fff"></path><polygon points="157.26 406 168.07 406 163.33 381.71 185.79 364.11 160.29 376.25 153.01 341.64 159.08 404.78 143.3 398.71 113.55 387.18 146.33 405.39 157.26 406" style="fill:#a1a1a1"></polygon><polygon points="291.43 373.21 276.86 404.78 282.93 405.39 286.57 396.28 302.81 393.36 287.79 390.21 291.43 373.21" style="fill:#a1a1a1"></polygon><polygon points="398.89 388.39 407.39 405.39 408.87 396.2 398.89 388.39" style="fill:#a1a1a1"></polygon><polygon points="414.74 406 415.95 393.63 426.82 385.35 416.59 387.16 418.32 369.57 407.39 405.39 411.03 406 414.74 406" style="fill:#a1a1a1"></polygon><path d="M453.9,406h.68a42.72,42.72,0,0,0-12.65-39.27.33.33,0,0,0-.47,0,.34.34,0,0,0,0,.48A42.07,42.07,0,0,1,453.9,406Z" style="fill:#162039"></path><path d="M448.83,393.32c4.06-.69,6.24,5.59,6.1,5.68,0,.71,0,1.42-.05,2.13-.28-.9-2.09-2.37-5.05-3.29S444.94,393.84,448.83,393.32Z" style="fill:#162039"></path><path d="M460.63,391.86c4-.53,2.7,4.88-.36,6s-4.89,2.44-5.33,3.28c.09-.71.15-1.42.19-2.13C455.28,399.07,456.86,392.51,460.63,391.86Z" style="fill:#162039"></path><path d="M447.57,387.35c3.89-1.36,7.08,4.39,7,4.5.12.69.23,1.38.31,2.07-.43-.82-2.46-1.94-5.54-2.34S443.82,388.51,447.57,387.35Z" style="fill:#162039"></path><path d="M459,383.93c3.86-1.2,3.47,4.31.64,5.91s-4.41,3.19-4.7,4.08c0-.7-.09-1.4-.17-2.1C454.88,391.87,455.35,385.21,459,383.93Z" style="fill:#162039"></path><path d="M445.34,381.69c3.6-2,7.71,3.13,7.6,3.26.24.65.46,1.3.66,2-.57-.74-2.75-1.48-5.85-1.36S441.84,383.47,445.34,381.69Z" style="fill:#162039"></path><path d="M456,376.41c3.61-1.82,4.14,3.66,1.62,5.7s-3.82,3.88-3.95,4.79c-.16-.67-.33-1.35-.52-2C453.3,384.9,452.65,378.28,456,376.41Z" style="fill:#162039"></path><path d="M442.19,376.48c3.22-2.55,8.13,1.81,8.05,1.95.33.6.66,1.21,1,1.83-.68-.63-3-1-6-.36S439,378.82,442.19,376.48Z" style="fill:#162039"></path><path d="M451.81,369.49c3.25-2.4,4.7,2.93,2.55,5.36s-3.12,4.46-3.1,5.38c-.26-.64-.55-1.27-.84-1.9C450.58,378.33,448.83,371.9,451.81,369.49Z" style="fill:#162039"></path><path d="M438.17,371.84c2.75-3.07,8.36.45,8.3.6.43.54.86,1.09,1.27,1.65-.78-.51-3.09-.5-6,.64S435.46,374.68,438.17,371.84Z" style="fill:#162039"></path><path d="M446.47,363.32c2.8-2.91,5.17,2.14,3.46,4.9s-2.32,4.93-2.14,5.84c-.37-.59-.76-1.17-1.16-1.75C446.79,372.29,444,366.2,446.47,363.32Z" style="fill:#162039"></path><path d="M444,369.24c.11,0-2.54-5.4-5.1-7.48s-4.62-.78-4.82.62,1.55,2.81,3.24,3.65S444,369.14,444,369.24Z" style="fill:#162039"></path><path d="M443.94,369.46h0a.23.23,0,0,0,.21-.16s0,0,0,0a.18.18,0,0,0,0-.17c-.31-1.07-3-5.75-5.15-7.53a3.65,3.65,0,0,0-3.67-1,2.28,2.28,0,0,0-1.51,1.74c-.3,1.9,2.5,3.45,3.36,3.88,1.7.69,6.22,2.88,6.61,3.16A.21.21,0,0,0,443.94,369.46Zm-7.26-8.56a4,4,0,0,1,2.05,1c2,1.64,4.06,5.33,4.77,6.77-.42-.22-1.08-.54-2.11-1-1.33-.64-3.08-1.46-4-1.83-1.63-.82-3.31-2.14-3.1-3.42A1.82,1.82,0,0,1,435.5,361,2.52,2.52,0,0,1,436.68,360.9Z" style="fill:#162039"></path><path d="M460.4,406h1a51.53,51.53,0,0,0,4.21-48.06.41.41,0,1,0-.75.31A50.71,50.71,0,0,1,460.4,406Z" style="fill:#162039"></path><path d="M460.25,390.61c4.81,1.21,4.17,9.19,4,9.22-.34.78-.7,1.56-1.08,2.33.13-1.14-1.16-3.63-4-6.09S455.71,389.29,460.25,390.61Z" style="fill:#162039"></path><path d="M474,394.73c4.67,1.36.6,6.69-3.31,6.44s-6.58.31-7.47,1c.43-.74.85-1.49,1.24-2.25C464.57,400.08,469.49,393.62,474,394.73Z" style="fill:#162039"></path><path d="M461.76,383.41c4.94.39,5.67,8.29,5.49,8.35q-.3,1.22-.66,2.43c-.08-1.12-1.78-3.34-5-5.27S457.06,382.87,461.76,383.41Z" style="fill:#162039"></path><path d="M476,385.17c4.84.55,1.73,6.44-2.16,6.83s-6.42,1.38-7.17,2.22c.3-.8.58-1.59.83-2.4C467.63,391.94,471.38,384.83,476,385.17Z" style="fill:#162039"></path><path d="M462.05,376.09c4.94-.44,7,7.2,6.8,7.28-.05.83-.13,1.66-.23,2.49-.27-1.08-2.32-3-5.79-4.33S457.33,376.35,462.05,376.09Z" style="fill:#162039"></path><path d="M476.36,375.45c4.86-.26,2.78,6-1,7.07s-6.1,2.41-6.69,3.36c.15-.83.29-1.65.41-2.48C469.26,383.5,471.76,375.88,476.36,375.45Z" style="fill:#162039"></path><path d="M461.11,368.81c4.79-1.25,8.08,5.95,7.93,6.06q.12,1.25.18,2.49c-.45-1-2.78-2.54-6.43-3.3S456.5,369.86,461.11,368.81Z" style="fill:#162039"></path><path d="M475.11,365.78c4.75-1.07,3.76,5.51.21,7.15s-5.61,3.41-6,4.43c0-.84,0-1.67,0-2.51C469.46,374.93,470.65,367,475.11,365.78Z" style="fill:#162039"></path><path d="M458.94,361.74c4.52-2,9,4.56,8.85,4.69.22.81.42,1.62.6,2.44-.61-.94-3.17-2.05-6.9-2.19S454.57,363.55,458.94,361.74Z" style="fill:#162039"></path><path d="M472.23,356.39c4.5-1.86,4.65,4.86,1.43,7.07s-5,4.31-5.2,5.4c-.12-.83-.27-1.66-.43-2.49C468.22,366.43,468,358.34,472.23,356.39Z" style="fill:#162039"></path><path d="M466.59,361.7c.12.05-.18-7.2-2-10.73s-4.72-3.1-5.62-1.66.34,3.85,1.8,5.6S466.67,361.6,466.59,361.7Z" style="fill:#162039"></path><path d="M466.45,361.93h0a.27.27,0,0,0,.31-.06l0,0a.21.21,0,0,0,.05-.21c.17-1.33-.46-7.77-2-10.8a4.46,4.46,0,0,0-3.57-2.87,2.79,2.79,0,0,0-2.52,1.19c-1.25,1.94,1.08,5,1.82,5.92,1.54,1.58,5.45,6.19,5.75,6.68A.28.28,0,0,0,466.45,361.93Zm-3.85-13a4.74,4.74,0,0,1,1.76,2.13c1.43,2.78,1.89,7.85,2,9.78-.35-.44-.92-1.12-1.82-2.17-1.15-1.35-2.68-3.11-3.53-4-1.39-1.69-2.6-4-1.76-5.27a2.23,2.23,0,0,1,2-.94A2.92,2.92,0,0,1,462.6,349Z" style="fill:#162039"></path><path d="M58.34,404.87l.55-.24a37.37,37.37,0,0,0-23.6-27.26.3.3,0,0,0-.2.56A36.75,36.75,0,0,1,58.34,404.87Z" style="fill:#162039"></path><path d="M49.93,396.41c3-2,6.93,2.35,6.85,2.48.24.57.48,1.14.69,1.73-.54-.64-2.5-1.19-5.19-.92S47,398.15,49.93,396.41Z" style="fill:#162039"></path><path d="M58.93,391.2c3-1.8,3.83,3,1.76,4.94s-3.11,3.64-3.17,4.46c-.18-.6-.37-1.19-.57-1.78C57.09,398.82,56.11,393,58.93,391.2Z" style="fill:#162039"></path><path d="M46.88,392c2.66-2.42,7.2,1.11,7.13,1.24.34.51.66,1,1,1.56-.64-.52-2.65-.72-5.26,0S44.26,394.25,46.88,392Z" style="fill:#162039"></path><path d="M54.87,385.39c2.69-2.29,4.26,2.28,2.54,4.53S55,394,55,394.81c-.27-.55-.56-1.09-.85-1.63C54.3,393.16,52.4,387.65,54.87,385.39Z" style="fill:#162039"></path><path d="M43.15,388.24c2.22-2.82,7.27-.11,7.23,0,.41.44.81.9,1.2,1.36-.71-.39-2.72-.25-5.17.91S40.94,390.87,43.15,388.24Z" style="fill:#162039"></path><path d="M49.91,380.36c2.28-2.7,4.58,1.53,3.25,4s-1.75,4.42-1.54,5.2c-.36-.49-.73-1-1.11-1.45C50.65,388.11,47.86,383,49.91,380.36Z" style="fill:#162039"></path><path d="M38.83,385.13C40.55,382,46,383.81,46,383.94c.48.37,1,.75,1.41,1.15-.76-.28-2.72.2-4.94,1.76S37.1,388.09,38.83,385.13Z" style="fill:#162039"></path><path d="M44.18,376.22c1.79-3,4.78.75,3.89,3.44s-1,4.65-.66,5.39c-.43-.43-.87-.84-1.33-1.24C46.21,383.75,42.61,379.18,44.18,376.22Z" style="fill:#162039"></path><path d="M34,382.77c1.17-3.41,6.88-2.49,6.88-2.36q.81.43,1.59.9c-.8-.15-2.66.66-4.59,2.56S32.81,386,34,382.77Z" style="fill:#162039"></path><path d="M37.78,373.08c1.26-3.3,4.88-.05,4.45,2.75s-.18,4.77.28,5.44c-.5-.35-1-.69-1.53-1C41.1,380.18,36.74,376.26,37.78,373.08Z" style="fill:#162039"></path><path d="M37.79,378.7c.09,0-3.89-3.48-6.66-4.28s-4,.95-3.66,2.15,2.2,1.73,3.85,1.83S37.78,378.61,37.79,378.7Z" style="fill:#162039"></path><path d="M37.84,378.89h0a.22.22,0,0,0,.12-.2v0a.15.15,0,0,0-.08-.13,21.09,21.09,0,0,0-6.71-4.3,3.25,3.25,0,0,0-3.29.47,2,2,0,0,0-.62,1.92c.4,1.63,3.19,1.92,4,2,1.6,0,6,.19,6.39.27A.24.24,0,0,0,37.84,378.89Zm-8.77-4.41a3.48,3.48,0,0,1,2,.13c2.18.63,5.1,2.9,6.16,3.81l-2-.11c-1.29-.06-3-.12-3.86-.11-1.59-.09-3.39-.59-3.66-1.68a1.61,1.61,0,0,1,.51-1.54A2.13,2.13,0,0,1,29.07,374.48Z" style="fill:#162039"></path><path d="M63.57,402.65l.78-.33a45.06,45.06,0,0,0-13-40.1.36.36,0,1,0-.5.51A44.32,44.32,0,0,1,63.57,402.65Z" style="fill:#162039"></path><path d="M58.19,390.32c4.28-.67,6.49,6,6.34,6.06,0,.75,0,1.5-.08,2.24-.28-.95-2.17-2.52-5.28-3.53S54.08,390.81,58.19,390.32Z" style="fill:#162039"></path><path d="M70.63,389c4.23-.51,2.78,5.17-.46,6.3s-5.19,2.5-5.65,3.38c.09-.74.17-1.49.22-2.24C64.9,396.46,66.65,389.58,70.63,389Z" style="fill:#162039"></path><path d="M57,384c4.1-1.38,7.39,4.73,7.26,4.84q.18,1.08.3,2.19c-.44-.88-2.57-2.08-5.8-2.55S53,385.18,57,384Z" style="fill:#162039"></path><path d="M69,380.57c4.08-1.21,3.6,4.58.6,6.23s-4.69,3.3-5,4.23c0-.74-.08-1.47-.15-2.21C64.58,388.87,65.16,381.86,69,380.57Z" style="fill:#162039"></path><path d="M54.67,378c3.83-2,8.08,3.41,8,3.54.23.68.45,1.38.66,2.08-.59-.78-2.88-1.6-6.14-1.51S51,379.85,54.67,378Z" style="fill:#162039"></path><path d="M66,372.61c3.82-1.87,4.3,3.91,1.62,6s-4.08,4-4.23,5c-.16-.72-.33-1.43-.52-2.14C63,381.52,62.42,374.54,66,372.61Z" style="fill:#162039"></path><path d="M51.43,372.49c3.43-2.64,8.53,2,8.44,2.16.35.64.69,1.29,1,2-.7-.68-3.1-1.1-6.3-.46S48.08,374.91,51.43,372.49Z" style="fill:#162039"></path><path d="M61.65,365.27c3.46-2.49,4.91,3.15,2.62,5.68s-3.35,4.65-3.34,5.62c-.27-.68-.56-1.35-.86-2C60.24,374.56,58.48,367.76,61.65,365.27Z" style="fill:#162039"></path><path d="M47.26,367.55c2.94-3.19,8.8.59,8.73.74.45.58.89,1.16,1.31,1.76-.81-.55-3.24-.56-6.29.59S44.37,370.5,47.26,367.55Z" style="fill:#162039"></path><path d="M56.12,358.7c3-3,5.41,2.31,3.58,5.2s-2.52,5.16-2.34,6.12c-.39-.63-.78-1.25-1.2-1.85C56.34,368.14,53.43,361.7,56.12,358.7Z" style="fill:#162039"></path><path d="M53.41,364.89c.11,0-2.61-5.72-5.27-7.95s-4.85-.88-5.08.59,1.59,3,3.36,3.89S53.43,364.79,53.41,364.89Z" style="fill:#162039"></path><path d="M53.37,365.13h0a.24.24,0,0,0,.23-.16v0a.17.17,0,0,0,0-.18c-.32-1.13-3-6.09-5.32-8a3.88,3.88,0,0,0-3.85-1.08,2.4,2.4,0,0,0-1.61,1.81c-.35,2,2.58,3.68,3.48,4.14,1.78.75,6.5,3.12,6.91,3.41A.24.24,0,0,0,53.37,365.13ZM45.84,356A4.19,4.19,0,0,1,48,357.12c2.1,1.76,4.21,5.67,4.94,7.2-.44-.24-1.13-.59-2.21-1.12-1.39-.7-3.22-1.59-4.2-2-1.7-.88-3.45-2.3-3.22-3.64a2,2,0,0,1,1.31-1.45A2.55,2.55,0,0,1,45.84,356Z" style="fill:#162039"></path></g><g id="freepik--Floor--inject-15"><path d="M485.21,406.5H6.76a.51.51,0,0,1-.5-.5.5.5,0,0,1,.5-.5H485.21a.5.5,0,0,1,.5.5A.5.5,0,0,1,485.21,406.5Z" style="fill:#263238"></path></g><g id="freepik--Clouds--inject-15"><path d="M65.83,45.84c-11,0-18.6-.17-19-.65a.62.62,0,0,1-.1-.46c.23-.92,1.32-3.93,5.69-4.24a12.25,12.25,0,0,1,3.37.22c1.09.21,1.23.23,1.73-.77l.08-.17c1.1-2.21,2.93-5.91,8.11-5.62a13.49,13.49,0,0,1,4.57,1.16c1.68.69,2.13.88,2.94-.87,1.88-4.08,5-8,13.51-6.06a12.56,12.56,0,0,1,3.84,1.56.51.51,0,0,1,.16.69.49.49,0,0,1-.69.16,11.42,11.42,0,0,0-3.53-1.44C78.69,27.58,75.94,31,74.14,34.86c-1.21,2.62-2.54,2.07-4.23,1.38a12.08,12.08,0,0,0-4.25-1.09c-4.51-.24-6,2.82-7.15,5.07l-.09.17c-.8,1.6-1.55,1.54-2.81,1.31a11.3,11.3,0,0,0-3.11-.21c-3.12.22-4.25,2-4.65,3,4.23.58,38.78.23,62.21-.17a7.49,7.49,0,0,0-3.58-5.15c-2-1.32-4-.29-5.9.7-1.38.72-2.7,1.41-3.91,1a.49.49,0,0,1-.33-.39,17.63,17.63,0,0,0-1.84-4.9.49.49,0,0,1,.19-.68.5.5,0,0,1,.68.19A18.89,18.89,0,0,1,97.26,40a5.92,5.92,0,0,0,2.86-1c1.95-1,4.37-2.28,6.9-.65a8.22,8.22,0,0,1,4.09,6.48.51.51,0,0,1-.49.5C95.32,45.61,78.4,45.84,65.83,45.84Z" style="fill:#263238"></path><path d="M288.7,279.92c-27.72,0-28.19-.61-28.49-1a.63.63,0,0,1-.1-.48c.38-1.52,2.19-6.53,9.51-7.05a20.62,20.62,0,0,1,5.74.38c1.94.36,2.4.45,3.39-1.54l.14-.29c1.87-3.74,5-10,13.69-9.52a22.73,22.73,0,0,1,7.79,2c2.92,1.21,4,1.66,5.56-1.68,3.2-6.94,8.43-13.58,23-10.3a21.31,21.31,0,0,1,5.12,1.87.5.5,0,1,1-.46.88,20.3,20.3,0,0,0-4.88-1.77c-13.82-3.12-18.67,2.83-21.85,9.74-1.95,4.2-4,3.36-6.85,2.19a21.62,21.62,0,0,0-7.47-1.91c-8-.44-10.86,5.22-12.73,9l-.15.3c-1.27,2.55-2.29,2.48-4.47,2.07a19.67,19.67,0,0,0-5.48-.37c-6,.44-7.92,4-8.51,5.92,1.41.28,7.83.66,32.64.61h0a.5.5,0,0,1,.5.49.52.52,0,0,1-.5.51Z" style="fill:#263238"></path><path d="M299.21,279.9a.51.51,0,0,1-.5-.5.5.5,0,0,1,.5-.5c29.26-.13,65.74-.74,70.55-.82a13.42,13.42,0,0,0-6.41-9.58c-3.72-2.39-7.36-.48-10.57,1.2-2.34,1.22-4.54,2.37-6.49,1.72A.52.52,0,0,1,346,271c0-.09-1.59-8.89-8-14.8a.5.5,0,0,1,0-.71.5.5,0,0,1,.7,0c6.08,5.58,8,13.37,8.29,15.05,1.5.32,3.33-.63,5.43-1.73,3.29-1.72,7.37-3.85,11.58-1.15,6.83,4.39,6.91,10.65,6.91,10.91a.5.5,0,0,1-.5.5c-.39,0-39.85.69-71.09.83Z" style="fill:#263238"></path><path d="M163.83,230c-12,0-20.85-.19-21.28-.72a.58.58,0,0,1-.1-.46c.26-1,1.47-4.39,6.37-4.74a13.77,13.77,0,0,1,3.79.25c1.25.24,1.44.27,2-.91l.09-.19c1.24-2.48,3.33-6.63,9.11-6.31a14.77,14.77,0,0,1,5.14,1.3c1.9.78,2.47,1,3.41-1,2.12-4.6,5.58-9,15.2-6.82,8.91,2,11.42,11.29,11.84,13.15.9.14,2-.46,3.33-1.13,2.18-1.14,4.9-2.56,7.73-.74a9.2,9.2,0,0,1,4.59,7.27.5.5,0,0,1-.49.5C199.73,229.66,179.18,230,163.83,230Zm-20.28-1.37c4.46.68,43.83.28,70.49-.18a8.54,8.54,0,0,0-4.09-5.94c-2.34-1.51-4.57-.34-6.73.79-1.56.81-3,1.58-4.37,1.13a.5.5,0,0,1-.34-.39c0-.1-1.93-10.6-11.14-12.68-8.9-2-12,1.82-14.07,6.26-1.34,2.91-2.82,2.3-4.7,1.53a13.86,13.86,0,0,0-4.82-1.24c-5.13-.28-6.88,3.21-8.15,5.77l-.1.19c-.88,1.77-1.67,1.71-3.1,1.44a12.63,12.63,0,0,0-3.54-.23C145.25,225.3,144,227.36,143.55,228.59Z" style="fill:#263238"></path></g><g id="freepik--speech-bubble-2--inject-15"><path d="M156.67,79.84h38.84A5.14,5.14,0,0,1,200.65,85V102.4a5.14,5.14,0,0,1-5.14,5.14H165.2l-12,9.37,3.8-9.37h-.29a5.14,5.14,0,0,1-5.14-5.14V85A5.14,5.14,0,0,1,156.67,79.84Z" style="fill:#263238"></path><path d="M153.16,117.41a.5.5,0,0,1-.31-.1.51.51,0,0,1-.16-.59l3.54-8.7a5.64,5.64,0,0,1-5.2-5.62V85a5.65,5.65,0,0,1,5.64-5.64h38.84A5.65,5.65,0,0,1,201.15,85V102.4a5.65,5.65,0,0,1-5.64,5.64H165.37l-11.91,9.26A.45.45,0,0,1,153.16,117.41Zm3.51-37.07A4.64,4.64,0,0,0,152,85V102.4a4.64,4.64,0,0,0,4.64,4.64H157a.51.51,0,0,1,.42.22.52.52,0,0,1,.05.47l-3.11,7.64,10.58-8.22a.46.46,0,0,1,.3-.11h30.31a4.64,4.64,0,0,0,4.64-4.64V85a4.64,4.64,0,0,0-4.64-4.64Z" style="fill:#263238"></path><path d="M156,78.21h38.84A5.14,5.14,0,0,1,200,83.35v17.42a5.14,5.14,0,0,1-5.14,5.14h-30.3l-12.05,9.37,3.81-9.37H156a5.14,5.14,0,0,1-5.14-5.14V83.35A5.14,5.14,0,0,1,156,78.21Z" style="fill:#fff"></path><path d="M152.51,115.78a.47.47,0,0,1-.3-.1.5.5,0,0,1-.16-.59l3.53-8.7a5.64,5.64,0,0,1-5.2-5.62V83.35A5.65,5.65,0,0,1,156,77.71h38.84a5.65,5.65,0,0,1,5.64,5.64v17.42a5.65,5.65,0,0,1-5.64,5.64H164.73l-11.91,9.27A.5.5,0,0,1,152.51,115.78ZM156,78.71a4.64,4.64,0,0,0-4.64,4.64v17.42a4.64,4.64,0,0,0,4.64,4.64h.3a.49.49,0,0,1,.41.22.52.52,0,0,1,.05.47l-3.11,7.64,10.58-8.22a.49.49,0,0,1,.31-.11h30.3a4.64,4.64,0,0,0,4.64-4.64V83.35a4.64,4.64,0,0,0-4.64-4.64Z" style="fill:#263238"></path><path d="M167,92.06a2,2,0,1,1-2-2A2,2,0,0,1,167,92.06Z" style="fill:#263238"></path><path d="M177.63,92.06a2,2,0,1,1-2-2A2,2,0,0,1,177.63,92.06Z" style="fill:#263238"></path><path d="M188.22,92.06a2,2,0,1,1-2-2A2,2,0,0,1,188.22,92.06Z" style="fill:#263238"></path></g><g id="freepik--speech-bubbles-1--inject-15"><path d="M387.15,51.51h68.46a9.07,9.07,0,0,1,9.07,9.06V91.28a9.07,9.07,0,0,1-9.07,9.06H402.19L381,116.86l6.71-16.52h-.51a9.07,9.07,0,0,1-9.07-9.06V60.57A9.07,9.07,0,0,1,387.15,51.51Z" style="fill:#263238"></path><path d="M381,117.36a.49.49,0,0,1-.3-.1.51.51,0,0,1-.16-.59l6.43-15.83a9.57,9.57,0,0,1-9.34-9.56V60.57A9.57,9.57,0,0,1,387.15,51h68.46a9.57,9.57,0,0,1,9.57,9.56V91.28a9.57,9.57,0,0,1-9.57,9.56H402.36l-21.1,16.42A.5.5,0,0,1,381,117.36ZM387.15,52a8.57,8.57,0,0,0-8.57,8.56V91.28a8.57,8.57,0,0,0,8.57,8.56h.52a.52.52,0,0,1,.41.22.52.52,0,0,1,.05.47l-6,14.79L401.88,100a.51.51,0,0,1,.31-.11h53.42a8.57,8.57,0,0,0,8.57-8.56V60.57A8.57,8.57,0,0,0,455.61,52Z" style="fill:#263238"></path><path d="M386,48.63h68.46a9.07,9.07,0,0,1,9.07,9.07V88.4a9.07,9.07,0,0,1-9.07,9.07H401.05L379.81,114l6.71-16.52H386a9.07,9.07,0,0,1-9.07-9.07V57.7A9.07,9.07,0,0,1,386,48.63Z" style="fill:#fff"></path><path d="M379.81,114.49a.57.57,0,0,1-.3-.1.5.5,0,0,1-.16-.59L385.78,98a9.58,9.58,0,0,1-9.34-9.57V57.7A9.58,9.58,0,0,1,386,48.13h68.46A9.58,9.58,0,0,1,464,57.7V88.4A9.58,9.58,0,0,1,454.47,98H401.22l-21.1,16.41A.51.51,0,0,1,379.81,114.49ZM386,49.13a8.59,8.59,0,0,0-8.57,8.57V88.4A8.58,8.58,0,0,0,386,97h.51a.5.5,0,0,1,.42.22.52.52,0,0,1,.05.47l-6,14.79,19.76-15.37a.51.51,0,0,1,.31-.11h53.42A8.58,8.58,0,0,0,463,88.4V57.7a8.59,8.59,0,0,0-8.57-8.57Z" style="fill:#263238"></path><path d="M405.42,73.05a3.59,3.59,0,1,1-3.59-3.59A3.58,3.58,0,0,1,405.42,73.05Z" style="fill:#263238"></path><path d="M424.1,73.05a3.59,3.59,0,1,1-3.59-3.59A3.59,3.59,0,0,1,424.1,73.05Z" style="fill:#263238"></path><path d="M442.77,73.05a3.59,3.59,0,1,1-3.59-3.59A3.59,3.59,0,0,1,442.77,73.05Z" style="fill:#263238"></path><path d="M296.79,37.64H186.28A10.28,10.28,0,0,0,176,47.92v34.8A10.28,10.28,0,0,0,186.28,93h93.46l24.07,18.72L296.21,93h.58a10.28,10.28,0,0,0,10.28-10.28V47.92A10.28,10.28,0,0,0,296.79,37.64Z" style="fill:#263238"></path><path d="M303.81,112.22a.47.47,0,0,1-.3-.1L279.57,93.5H186.28A10.8,10.8,0,0,1,175.5,82.72V47.92a10.8,10.8,0,0,1,10.78-10.78H296.79a10.8,10.8,0,0,1,10.78,10.78v34.8A10.8,10.8,0,0,1,297,93.5l7.33,18a.5.5,0,0,1-.17.59A.45.45,0,0,1,303.81,112.22ZM186.28,38.14a9.79,9.79,0,0,0-9.78,9.78v34.8a9.79,9.79,0,0,0,9.78,9.78h93.46a.5.5,0,0,1,.31.1l22.6,17.58-6.91-17a.52.52,0,0,1,.05-.47.5.5,0,0,1,.42-.22h.58a9.79,9.79,0,0,0,9.78-9.78V47.92a9.79,9.79,0,0,0-9.78-9.78Z" style="fill:#263238"></path><path d="M293.05,34.38H182.54a10.28,10.28,0,0,0-10.27,10.28v34.8a10.27,10.27,0,0,0,10.27,10.28H276l24.07,18.72-7.6-18.72h.58a10.28,10.28,0,0,0,10.28-10.28V44.66A10.28,10.28,0,0,0,293.05,34.38Z" style="fill:#fff"></path><path d="M300.07,109a.49.49,0,0,1-.3-.1L275.83,90.24H182.54a10.78,10.78,0,0,1-10.77-10.78V44.66a10.79,10.79,0,0,1,10.77-10.78H293.05a10.8,10.8,0,0,1,10.78,10.78v34.8a10.79,10.79,0,0,1-10.62,10.78l7.33,18a.49.49,0,0,1-.16.58A.5.5,0,0,1,300.07,109ZM182.54,34.88a9.79,9.79,0,0,0-9.77,9.78v34.8a9.79,9.79,0,0,0,9.77,9.78H276a.51.51,0,0,1,.31.11l22.6,17.57-6.91-17a.52.52,0,0,1,.05-.47.51.51,0,0,1,.42-.22h.58a9.79,9.79,0,0,0,9.78-9.78V44.66a9.79,9.79,0,0,0-9.78-9.78Z" style="fill:#263238"></path><circle cx="216.63" cy="62.06" r="4.07" style="fill:#263238"></circle><circle cx="237.8" cy="62.06" r="4.07" style="fill:#263238"></circle><circle cx="258.96" cy="62.06" r="4.07" style="fill:#263238"></circle></g><g id="freepik--character-2--inject-15"><path d="M314.79,439.45,311.73,444a53,53,0,0,1-11.47,7.26c-6.11,2.67-17.56-1.74-17.56,2.09s9.15,10.52,24.06,12.43a208.23,208.23,0,0,0,25.86,1.56,2.82,2.82,0,0,0,2.82-2.82l.1-20.86Z" style="fill:#fff"></path><path d="M332.35,467.88a210.67,210.67,0,0,1-25.65-1.56c-15.18-1.94-24.5-8.84-24.5-12.93a1.82,1.82,0,0,1,.57-1.37c1.13-1,3.71-.83,7-.56,3.53.28,7.52.61,10.32-.62a52.43,52.43,0,0,0,11.29-7.14l3-4.53a.5.5,0,0,1,.52-.21l20.75,4.25a.5.5,0,0,1,.4.5l-.1,20.86a3.32,3.32,0,0,1-3.32,3.31ZM286,452.24a4.11,4.11,0,0,0-2.53.52.78.78,0,0,0-.25.63c0,3.63,9.21,10.09,23.62,11.94a206.5,206.5,0,0,0,25.8,1.55,2.32,2.32,0,0,0,2.32-2.32l.1-20.45L315,440l-2.87,4.3-.09.11a54.54,54.54,0,0,1-11.6,7.34c-3,1.32-7.16,1-10.8.69C288.34,452.35,287.05,452.24,286,452.24Zm25.75-8.2h0Z" style="fill:#263238"></path><path d="M332.61,462.88c-6.61.9-20.15,1.8-32.18-1.21a40,40,0,0,1-17.21-9.37,1.28,1.28,0,0,0-.52,1.09c0,3.82,9.15,10.52,24.06,12.43a208.23,208.23,0,0,0,25.86,1.56,2.82,2.82,0,0,0,2.82-2.82v-2C334.57,462.62,333.63,462.74,332.61,462.88Z" style="fill:#fff"></path><path d="M332.35,467.88a210.67,210.67,0,0,1-25.65-1.56c-15.18-1.94-24.5-8.84-24.5-12.93a1.79,1.79,0,0,1,.72-1.49.5.5,0,0,1,.64,0,39.54,39.54,0,0,0,17,9.26c13.34,3.33,27.85,1.75,32,1.19,1-.14,2-.25,2.85-.35a.51.51,0,0,1,.39.12.53.53,0,0,1,.16.38v2a3.32,3.32,0,0,1-3.32,3.31ZM283.27,453a1,1,0,0,0-.07.37c0,3.63,9.21,10.09,23.62,11.94a206.5,206.5,0,0,0,25.8,1.55,2.32,2.32,0,0,0,2.32-2.32v-1.48l-2.27.29h0c-4.17.57-18.85,2.17-32.37-1.21A40.64,40.64,0,0,1,283.27,453Zm49.34,9.86h0Z" style="fill:#263238"></path><path d="M344.66,248.39,339.57,271s-22.47,81-21.94,91.57-3.17,78.52-3.17,78.52l21.08,2.63,12.65-80.62,26.69-71s3.35,66.8,3.35,71,19,81.68,19,81.68l19.27-1.49-7.15-87,5.08-93.14-1.27-18Z" style="fill:#263238"></path><path d="M397.2,445.26a.51.51,0,0,1-.49-.38c-.77-3.17-19-77.58-19-81.8,0-3.7-2.63-56.59-3.23-68.59L348.68,363.2,336,443.78a.51.51,0,0,1-.56.42l-21.08-2.63A.52.52,0,0,1,314,441c0-.68,3.69-68.07,3.17-78.47s21-88.41,22-91.72l5.08-22.57a.5.5,0,0,1,.46-.39l68.48-3.28a.51.51,0,0,1,.52.47l1.27,18-5.08,93.21,7.15,87a.52.52,0,0,1-.12.37.51.51,0,0,1-.34.17l-19.27,1.49Zm-22.32-153.7H375a.5.5,0,0,1,.43.46c.13,2.73,3.35,66.86,3.35,71.05,0,3.95,17.36,75,18.86,81.15l18.34-1.42-7.11-86.54,5.08-93.22-1.23-17.41-67.61,3.23-5,22.22c-.22.83-22.44,81.09-21.93,91.43.5,10-2.81,72.08-3.13,78.11l20.13,2.52L347.7,363a.3.3,0,0,1,0-.1l26.69-71A.5.5,0,0,1,374.88,291.56Z" style="fill:#263238"></path><path d="M345.55,238.86l-.89,9.53s3.87,5.36,34.24,5.36,34.23-8.64,34.23-8.64l-1.78-7.74S379.19,249.88,345.55,238.86Z" style="fill:#162039"></path><path d="M378.9,254.25c-30.28,0-34.48-5.34-34.65-5.57a.52.52,0,0,1-.09-.34l.89-9.53a.53.53,0,0,1,.23-.37.5.5,0,0,1,.43-.05c33.07,10.83,65.14-1.36,65.46-1.48a.46.46,0,0,1,.41,0,.54.54,0,0,1,.26.33l1.78,7.74a.44.44,0,0,1,0,.32C413.43,245.68,409.24,254.25,378.9,254.25Zm-33.72-6c.83.75,6.77,5,33.72,5,27.44,0,33-7.15,33.7-8.21L411,238c-4.35,1.54-34.15,11.34-65,1.49Z" style="fill:#263238"></path><path d="M340.75,133.09s-12.65,10.08-14.85,14.48-19.67,38.46-19.85,39-42-17.68-42-17.68l-7.55,12.93s35.92,26.57,41.19,29.65,12,7,13.67,5.91,25.76-22.18,25.76-22.18,7.51,18.14,8.25,19.42.36,15.58.36,16.68-2.93,7.33-1.28,9.52,21.26,7.15,34.08,5.69,28.41-4.22,30.42-5.32a7.31,7.31,0,0,0,3.67-6.41c0-2.93-.18-46.65-3.84-61.49s-6.1-25.87-12.51-34.67-25.62-16.53-26.9-17.82S340.75,133.09,340.75,133.09Z" style="fill:#162039"></path><path d="M373.42,247.28c-12.3,0-27.74-3.91-29.41-6.15-1.34-1.79-.12-5.56.69-8a11.84,11.84,0,0,0,.49-1.77c0-.16,0-.56,0-1.14.21-12.39-.11-14.9-.32-15.29-.67-1.17-6.64-15.55-8-18.84-3.63,3.17-23.75,20.76-25.3,21.77-1.79,1.16-7.25-1.85-14.19-5.9-5.23-3.06-39.77-28.59-41.24-29.68a.5.5,0,0,1-.13-.65l7.55-12.93a.49.49,0,0,1,.63-.21c15.4,6.71,38.48,16.62,41.55,17.58.82-1.67,4.31-8.52,11.43-22.46,3.78-7.4,7.36-14.4,8.27-16.22,2.22-4.44,14.46-14.23,15-14.64l.08-.06c12.61-6.26,27.9-13.44,29.17-12.18a31.54,31.54,0,0,0,3.78,2c6.4,3.21,18.3,9.18,23.16,15.84,6.08,8.34,8.66,18.85,11.93,32.16l.66,2.69c3.81,15.42,3.86,61.15,3.86,61.61a7.83,7.83,0,0,1-3.93,6.85c-2.11,1.15-17.84,3.91-30.6,5.37A44.17,44.17,0,0,1,373.42,247.28Zm-36.34-52.57h.12a.51.51,0,0,1,.34.3c2.6,6.26,7.65,18.37,8.22,19.36s.63,5.59.45,15.81c0,.57,0,1,0,1.12a8.88,8.88,0,0,1-.54,2.08c-.7,2.15-1.87,5.77-.84,7.15,1.36,1.81,20.27,7,33.63,5.48s28.41-4.26,30.23-5.26a6.82,6.82,0,0,0,3.41-6c0-.46-.05-46.07-3.83-61.37l-.66-2.69c-3.24-13.21-5.81-23.63-11.77-31.81-4.72-6.47-16.48-12.37-22.8-15.53a29.76,29.76,0,0,1-4-2.16c-1.67-.22-15.6,6.12-28,12.29-.8.63-12.6,10.14-14.67,14.27-.91,1.82-4.48,8.82-8.27,16.23-5.05,9.89-11.34,22.2-11.56,22.74a.61.61,0,0,1-.27.28c-.25.11-.91.4-42-17.51l-7.09,12.17C260.9,184.49,293,208.18,297.9,211c4.1,2.4,11.72,6.85,13.15,5.93s17.37-14.85,25.7-22.14A.5.5,0,0,1,337.08,194.71Z" style="fill:#263238"></path><path d="M391.39,184.24c-4.82,0-9.84-.73-10.35-1.76a.49.49,0,0,1,.22-.67.5.5,0,0,1,.65.19c.78.7,8.75,1.8,14.47.92a.5.5,0,1,1,.15,1A33.92,33.92,0,0,1,391.39,184.24ZM381.93,182Z" style="fill:#263238"></path><path d="M400.84,188.75h-.07c-3.68-.46-11.93-2.68-12.28-2.77a.5.5,0,1,1,.27-1c.08,0,8.53,2.3,12.14,2.75a.5.5,0,0,1,.43.56A.5.5,0,0,1,400.84,188.75Z" style="fill:#263238"></path><path d="M384.55,232.81l-.15,0c-15.37-4.73-33.3-17.21-33.48-17.34a.49.49,0,0,1-.12-.69.5.5,0,0,1,.69-.13c.18.13,18,12.52,33.21,17.2a.5.5,0,0,1-.15,1Z" style="fill:#263238"></path><path d="M390.21,237h0a34.64,34.64,0,0,1-3.65-.61.5.5,0,1,1,.2-1,32.83,32.83,0,0,0,3.55.58.5.5,0,0,1-.05,1Z" style="fill:#263238"></path><path d="M383,235.5h-.13a164.63,164.63,0,0,1-17-6,.5.5,0,0,1-.27-.66.51.51,0,0,1,.66-.26,160.92,160.92,0,0,0,16.88,5.94.52.52,0,0,1,.35.62A.5.5,0,0,1,383,235.5Z" style="fill:#263238"></path><path d="M261,185.06a.42.42,0,0,1-.26-.08.49.49,0,0,1-.16-.69l8.29-13.13a.5.5,0,0,1,.69-.15.49.49,0,0,1,.16.69l-8.29,13.13A.51.51,0,0,1,261,185.06Z" style="fill:#263238"></path><path d="M338.9,135.74s-.17,12.19.75,21.54,13.56,32.25,13.56,32.25,4.21-19.79,8.61-38.3,7.88-28.77,7.51-30.42-3.66-3.18-3.66-3.18S346,122.26,338.9,135.74Z" style="fill:#fff"></path><path d="M353.21,190a.51.51,0,0,1-.44-.26c-.52-.94-12.7-23.1-13.62-32.44s-.75-21.48-.75-21.6a.43.43,0,0,1,.06-.22c7.16-13.53,26.89-18.32,27.09-18.37a.53.53,0,0,1,.33,0c.36.17,3.53,1.69,3.94,3.53.21,1-.5,3.67-2.28,10.24-1.35,5-3.19,11.81-5.23,20.4-4.35,18.29-8.57,38.08-8.61,38.28a.5.5,0,0,1-.42.39ZM339.4,135.87c0,1.29-.11,12.64.75,21.36.77,7.93,10.27,26.06,12.85,30.87,1-4.74,4.63-21.41,8.33-37,2.05-8.61,3.9-15.44,5.25-20.43,1.41-5.23,2.43-9,2.26-9.77-.21-1-2-2.17-3.23-2.76C363.7,118.65,346,123.48,339.4,135.87Z" style="fill:#263238"></path><polygon points="342.81 136.89 339.43 146.62 350.86 150.85 342.81 136.89" style="fill:#fff"></polygon><path d="M350.86,151.35a.57.57,0,0,1-.18,0l-11.42-4.23a.49.49,0,0,1-.3-.63l3.38-9.74a.51.51,0,0,1,.43-.33.5.5,0,0,1,.48.25l8,14a.53.53,0,0,1-.05.58A.52.52,0,0,1,350.86,151.35Zm-10.8-5,9.67,3.58-6.8-11.82Z" style="fill:#263238"></path><polygon points="339.43 146.62 344.51 156.14 347.44 149.5 339.43 146.62" style="fill:#fff"></polygon><path d="M344.51,156.64a.49.49,0,0,1-.44-.26L339,146.86a.5.5,0,0,1,.61-.71l8,2.88a.51.51,0,0,1,.29.27.47.47,0,0,1,0,.4L345,156.35a.5.5,0,0,1-.44.29Zm-4-9.11,4,7.47,2.3-5.21Z" style="fill:#263238"></path><path d="M319.27,80.39s-3.53,11.32-3.36,14.86a53.37,53.37,0,0,0,.71,5.83c0,.53-5.66,8.84-5.48,10.43s5.48,4.6,5.48,4.6,5.48,12.91,6.54,14.5,2.13,3,4.42,2.83,6.9-2.47,6.9-2.47L349,147.23s12.55-30.06,12.55-30.76-2.29-4.6-2.29-4.6,8.84-23,8.13-26.88-6.9-10.08-14-13.08-18.57-1.24-18.57-1.24,2.66-5.66-.17-5.13-4.07,2.48-5,3-1.77-3.89-5.49-1.06-4.59,10.25-4.59,10.25S315.91,75.27,319.27,80.39Z" style="fill:#fff"></path><path d="M349,147.73a.51.51,0,0,1-.37-.16l-14.25-16c-1.13.54-4.72,2.2-6.74,2.36-2.7.2-3.9-1.6-4.87-3.05s-5.87-12.89-6.52-14.43c-1.19-.68-5.4-3.21-5.59-4.89-.12-1.12,1.66-4.15,4-8,.67-1.1,1.43-2.35,1.5-2.59,0,0-.06-.34-.13-.7a36.34,36.34,0,0,1-.58-5c-.17-3.35,2.79-13.14,3.31-14.8-1.53-2.38-1.56-3.16-1.12-3.59s1.06-.22,1.63.06c.34-2,1.51-7.44,4.68-9.85,2.91-2.22,4.42-.43,5.23.53a4.37,4.37,0,0,0,.4.43,8.18,8.18,0,0,0,.64-.56,8.38,8.38,0,0,1,4.38-2.44,1.45,1.45,0,0,1,1.55.46c.77,1,0,3.26-.48,4.54,2.87-.35,11.9-1.18,18,1.4,6.82,2.9,13.49,9.18,14.26,13.45.7,3.82-7.1,24.39-8.07,26.92.76,1.3,2.24,3.92,2.24,4.65s-7.89,19.69-12.59,31a.51.51,0,0,1-.38.3Zm-14.5-17.27a.48.48,0,0,1,.37.17l14,15.68c4.91-11.78,12-28.95,12.21-29.91a31.91,31.91,0,0,0-2.23-4.28.47.47,0,0,1,0-.43c2.44-6.36,8.67-23.53,8.11-26.61-.65-3.54-6.42-9.63-13.67-12.71-6.86-2.92-18.19-1.22-18.3-1.21a.5.5,0,0,1-.48-.19.5.5,0,0,1-.05-.51c.78-1.67,1.37-3.8.95-4.34-.09-.11-.28-.14-.58-.09a7.47,7.47,0,0,0-3.88,2.19A6.3,6.3,0,0,1,330,69c-.64.38-1.16-.23-1.57-.72-.8-.94-1.71-2-3.86-.38-3.5,2.67-4.4,9.85-4.41,9.92a.5.5,0,0,1-.77.36,4.36,4.36,0,0,0-1-.49,9.15,9.15,0,0,0,1.3,2.45.48.48,0,0,1,.06.42c0,.11-3.51,11.27-3.34,14.68a37.08,37.08,0,0,0,.57,4.9,5.83,5.83,0,0,1,.14,1c0,.29-.18.63-1.63,3-1.28,2.1-3.95,6.49-3.85,7.36s2.78,2.83,5.23,4.22a.49.49,0,0,1,.21.24c1.89,4.45,5.68,13.19,6.5,14.41,1.08,1.63,2,2.76,4,2.61,2.17-.17,6.66-2.4,6.71-2.42A.43.43,0,0,1,334.48,130.46Z" style="fill:#263238"></path><path d="M322.28,102c0,1.24-.5,2.23-1.12,2.23s-1.11-1-1.11-2.23.5-2.23,1.11-2.23S322.28,100.72,322.28,102Z" style="fill:#263238"></path><path d="M353.4,71.91c-7.07-3-18.57-1.24-18.57-1.24s2.66-5.66-.17-5.13-4.07,2.48-5,3-1.77-3.89-5.49-1.06-4.59,10.25-4.59,10.25-3.72-2.47-.36,2.65a3.94,3.94,0,0,0,2.38.84,33,33,0,0,0,7.17-1.9c1.24-.53,7.25.36,8.49.89s3,.35,0,2.3-6,3.18-6.19,5.65,6.19,4.6,8,5.49,2.12,3.71,1.77,4.77-1.77,2.83-.71,3.89,3.36-.35,3.36-.35,4.42-8.14,6.54-8.67,4.95,9.2,3.89,12.2-5.48,3.89-5.48,3.89.53,3.72,3.71,5.13c2.22,1,5.38-1.2,7.09-2.62v0s8.84-23,8.13-26.88S360.47,74.91,353.4,71.91Z" style="fill:#263238"></path><path d="M353.41,115.27A3.58,3.58,0,0,1,352,115c-3.4-1.51-4-5.35-4-5.52a.51.51,0,0,1,.4-.56s4.16-.87,5.11-3.56c.78-2.22-.89-9.22-2.67-11.17-.25-.28-.48-.42-.63-.38-1.39.34-4.55,5.34-6.22,8.41a.41.41,0,0,1-.18.19c-.27.17-2.67,1.59-4,.28-1.05-1-.33-2.5.2-3.56a7.05,7.05,0,0,0,.38-.84c.28-.84,0-3.42-1.52-4.17-.32-.16-.8-.36-1.36-.6-2.8-1.19-7-3-6.87-5.36s2.27-3.52,4.7-5c.56-.33,1.14-.68,1.72-1.05a7.56,7.56,0,0,0,1.33-1l-.45-.14c-.26-.08-.54-.16-.81-.27-1.2-.52-7.07-1.33-8.09-.89a32.84,32.84,0,0,1-7.37,1.94,4.38,4.38,0,0,1-2.7-1,.28.28,0,0,1-.09-.1c-1.66-2.53-1.7-3.35-1.25-3.79s1.06-.22,1.63.06c.34-2,1.51-7.44,4.68-9.85,2.91-2.22,4.42-.43,5.23.53a4.37,4.37,0,0,0,.4.43,8.18,8.18,0,0,0,.64-.56,8.38,8.38,0,0,1,4.38-2.44,1.45,1.45,0,0,1,1.55.46c.77,1,0,3.26-.48,4.54,2.87-.35,11.9-1.18,18,1.4,6.82,2.9,13.49,9.18,14.26,13.45.71,3.9-7.42,25.24-8.12,27.06a.46.46,0,0,1-.17.32C357.82,113.74,355.48,115.27,353.41,115.27ZM349,109.76a6.38,6.38,0,0,0,3.33,4.3c2,.88,5.05-1.31,6.42-2.43,2.46-6.41,8.65-23.48,8.09-26.55-.65-3.54-6.42-9.63-13.67-12.71-6.86-2.92-18.19-1.22-18.3-1.21a.5.5,0,0,1-.48-.19.5.5,0,0,1-.05-.51c.78-1.67,1.37-3.8.95-4.34-.09-.11-.28-.14-.58-.09a7.47,7.47,0,0,0-3.88,2.19A6.3,6.3,0,0,1,330,69c-.64.38-1.16-.23-1.57-.72-.8-.94-1.71-2-3.86-.38-3.5,2.67-4.4,9.85-4.41,9.92a.5.5,0,0,1-.77.36,4.36,4.36,0,0,0-1-.49,8.73,8.73,0,0,0,1.26,2.38,3.44,3.44,0,0,0,2,.68,32.85,32.85,0,0,0,7-1.86c1.47-.63,7.65.36,8.88.89.22.09.47.16.69.23.58.17,1.18.34,1.26.91s-.41,1.09-1.88,2c-.59.38-1.17.73-1.74,1.07-2.29,1.38-4.1,2.46-4.22,4.2s4.19,3.49,6.26,4.37c.59.25,1.09.46,1.42.63,2,1,2.45,4.09,2,5.38a7.23,7.23,0,0,1-.44,1c-.52,1.06-.89,1.9-.39,2.41s2,0,2.64-.37c.89-1.63,4.63-8.24,6.79-8.78a1.6,1.6,0,0,1,1.6.67c1.92,2.11,3.87,9.38,2.88,12.18C353.47,108.31,350.28,109.42,349,109.76Z" style="fill:#263238"></path><path d="M318.57,96.45a.48.48,0,0,1-.26-.07.49.49,0,0,1-.17-.68,4.74,4.74,0,0,1,2.92-2.06,6,6,0,0,1,4.7,1.38.5.5,0,1,1-.59.81,5,5,0,0,0-3.9-1.21A3.75,3.75,0,0,0,319,96.21.5.5,0,0,1,318.57,96.45Z" style="fill:#263238"></path><path d="M321.22,116.82s4.07.18,6.72-4.42c0,0,.88,4.24-.36,5.83S321.22,116.82,321.22,116.82Z" style="fill:#263238"></path><path d="M326.36,119.19c-1.95,0-4.71-1.54-5.39-1.94a.5.5,0,0,1-.23-.57.48.48,0,0,1,.5-.36c.15,0,3.81.09,6.27-4.17a.5.5,0,0,1,.51-.25.51.51,0,0,1,.41.4c.09.45.89,4.52-.45,6.24A1.94,1.94,0,0,1,326.36,119.19Zm-3.52-2.08c1.78.84,3.83,1.49,4.35.82.66-.85.61-2.77.45-4.17A8.64,8.64,0,0,1,322.84,117.11Z" style="fill:#263238"></path><polygon points="334.48 130.97 340.67 127.25 338.9 135.74 334.48 130.97" style="fill:#263238"></polygon><path d="M338.9,136.24a.52.52,0,0,1-.37-.16l-4.42-4.78a.5.5,0,0,1,.11-.76l6.19-3.72a.52.52,0,0,1,.55,0,.51.51,0,0,1,.2.51l-1.77,8.49a.5.5,0,0,1-.35.38Zm-3.63-5.16,3.34,3.61,1.34-6.42Z" style="fill:#263238"></path><polygon points="360.8 113.82 346.83 146.83 355.09 155.51 365.67 117.63 360.8 113.82" style="fill:#fff"></polygon><path d="M355.09,156a.48.48,0,0,1-.36-.16l-8.26-8.67a.54.54,0,0,1-.1-.54l14-33a.48.48,0,0,1,.34-.29.48.48,0,0,1,.43.09l4.87,3.81a.5.5,0,0,1,.17.53l-10.58,37.87a.49.49,0,0,1-.36.35Zm-7.67-9.28,7.42,7.8,10.26-36.71-4.09-3.2Z" style="fill:#263238"></path><path d="M388.35,137.35s-5.5-.19-12.28,5.31-17.73,14.25-17.73,14.25l-23.26,24.85-46-31.08-10.26,7.7s54.12,58.19,56.69,58.19,56.88-40.56,60-42.39" style="fill:#162039"></path><path d="M335.5,217.07c-2.59,0-44.32-44.66-57.05-58.35a.49.49,0,0,1,.06-.74l10.26-7.7a.5.5,0,0,1,.58,0L335,181.11l23-24.54c.17-.14,11.09-8.86,17.79-14.3s12.38-5.43,12.61-5.42a.5.5,0,0,1,.48.51.51.51,0,0,1-.52.49c-.05,0-5.41-.1-11.94,5.2-6.71,5.43-17.63,14.17-17.74,14.25l-23.2,24.8a.52.52,0,0,1-.65.08L289.09,151.3l-9.53,7.14c21.32,22.93,53.56,56.91,56,57.64,1.93-.32,28.11-19.44,43.76-30.86,8.64-6.3,14.88-10.86,15.92-11.47a.51.51,0,0,1,.69.17.51.51,0,0,1-.18.69c-1,.59-7.55,5.37-15.84,11.42C351.71,206.62,337.09,217.07,335.5,217.07Z" style="fill:#263238"></path><path d="M283.82,163.18a.5.5,0,0,1-.33-.88l9.68-8.29a.5.5,0,1,1,.65.75l-9.68,8.3A.49.49,0,0,1,283.82,163.18Z" style="fill:#263238"></path><path d="M289.07,150.68v-3.85c0-1.46,0-10.07-.73-12.27s-4.95-8.8-6.41-10.81-3.12-5.5-4.22-3.3-.55,3.3.55,4.76a62.48,62.48,0,0,1,3.48,6.6s-7.32-7.15-7.69-7.88-6.78-11-7.51-11.91-2,.18-1.65,1.47,6.59,14.65,6.59,14.65-5.68-6.23-7.33-9-4-7.33-5.13-6.42-.36,1.47,1.47,6.23,5.86,12.28,5.86,12.28-6-6.41-6.78-7.33-3.66-6.78-4.39-4.76,2,6.59,2.19,7.14,2.57,4.58,2.57,4.58l2.75,3.85a24,24,0,0,1-5.32-3.3c-2-1.83-3.84-2.38-3.66-.36s2.93,3.84,3.85,4.58,7.79,7.16,9.81,9.9,5.58,6.77,5.58,6.77l5.86,6Z" style="fill:#fff"></path><path d="M278.81,158.88a.51.51,0,0,1-.36-.15l-5.86-6c0-.06-3.62-4.08-5.63-6.82s-8.8-9.08-9.72-9.81c-.1-.09-.24-.19-.39-.31-1.21-.92-3.46-2.63-3.64-4.62-.1-1.07.32-1.51.68-1.69,1.13-.56,2.88.79,3.82,1.64a18.51,18.51,0,0,0,3.39,2.31l-1.57-2.2c-.42-.71-2.44-4.14-2.63-4.71a6.4,6.4,0,0,0-.31-.63c-.83-1.63-2.55-5-1.88-6.85a1,1,0,0,1,.82-.74c1-.07,1.93,1.26,3.65,4.13.33.54.63,1.05.78,1.24.41.5,2.52,2.78,4.28,4.66-1.33-2.63-3.15-6.35-4.22-9.12-.46-1.2-.85-2.13-1.16-2.86-.94-2.25-1.26-3-.16-3.93a1,1,0,0,1,.83-.22c1.15.2,2.44,2.29,4.28,5.44l.77,1.32a60.39,60.39,0,0,0,5,6.35c-1.87-4.05-4.93-10.72-5.19-11.64a2,2,0,0,1,.88-2.29,1.29,1.29,0,0,1,1.64.38c.75.94,7.18,11.22,7.57,12,.24.43,3,3.23,5.55,5.73a33.4,33.4,0,0,0-2.19-3.93c-1.1-1.47-1.84-2.79-.59-5.29a1.46,1.46,0,0,1,1.2-1c1.06-.07,1.95,1.32,3,2.92.29.45.58.89.86,1.28,1.51,2.08,5.73,8.69,6.49,11,.66,2,.75,8.64.75,12.43v3.85a.48.48,0,0,1-.2.4l-10.26,7.7A.47.47,0,0,1,278.81,158.88Zm-24.32-28.59a.33.33,0,0,0-.15,0c-.12.06-.17.34-.13.71.14,1.55,2.16,3.09,3.24,3.91l.42.33c1,.77,7.83,7.18,9.9,10s5.52,6.69,5.55,6.73l5.54,5.71,9.71-7.28v-3.6c0-6.35-.25-10.77-.7-12.11-.7-2.09-4.81-8.57-6.35-10.68-.29-.4-.59-.86-.89-1.33-.6-.92-1.61-2.46-2.09-2.46h0c-.08,0-.22.11-.37.42-1,1.93-.57,2.82.5,4.24a61.5,61.5,0,0,1,3.54,6.69.5.5,0,0,1-.17.62.49.49,0,0,1-.63-.05c-1.74-1.69-7.42-7.27-7.8-8s-6.76-10.94-7.45-11.82c-.13-.15-.25-.19-.4-.11a1,1,0,0,0-.38,1.13c.29,1,4.84,10.87,6.57,14.58a.5.5,0,0,1-.83.55c-.23-.25-5.73-6.3-7.38-9.06-.25-.41-.51-.86-.78-1.32-.94-1.62-2.89-5-3.59-5h0c-.5.42-.51.51.44,2.78.32.74.71,1.68,1.18,2.89,1.8,4.68,5.79,12.15,5.83,12.22a.5.5,0,0,1-.15.65.49.49,0,0,1-.65-.07c-.25-.26-6.07-6.44-6.81-7.36-.19-.24-.48-.73-.86-1.34-.56-.94-2-3.38-2.64-3.63a.24.24,0,0,0,0,.07c-.52,1.43,1.19,4.78,1.83,6,.19.38.33.66.37.77.1.32,1.36,2.53,2.52,4.49l2.72,3.81a.5.5,0,0,1,0,.61.52.52,0,0,1-.6.14,24,24,0,0,1-5.44-3.39A5,5,0,0,0,254.49,130.29Zm34.58,20.39h0Z" style="fill:#263238"></path><path d="M264,168.9l-5.94-4.52s-1.9-6.95-3.39-8.94-6-5.4-7.13-7.53-1.71-7.43-3.35-6.55a4.3,4.3,0,0,0-2,5c.53,2.26,4,7.21,4,7.21l-10.47-4.35s-11.91-4.41-13-4.79-2.4,0-2.13,1.17,1.68,1.52,2.77,2.06,9.49,4.93,9.49,4.93-12.12-3.47-13.38-3.85-2.49-1.08-2.54-.13.22,1.93,2.71,3.33,12.28,6.51,12.28,6.51-5.05-1.05-10.28-1.94-4.78-.08-4.05,1.39,13.62,5.3,13.62,5.3-8.51,1-10.12,1.26a1.22,1.22,0,0,0-.43,2.37c1.09.37,8.58.74,9.51,1.11s5.59,3.31,9.8,5.11a54.64,54.64,0,0,0,10.69,3.4c1.11.06,5.85,5.37,5.85,5.37Z" style="fill:#fff"></path><path d="M256.46,182.33a.55.55,0,0,1-.38-.16c-2.16-2.43-4.88-5.11-5.51-5.21a55.07,55.07,0,0,1-10.84-3.44,81.69,81.69,0,0,1-7.7-4c-1-.56-1.79-1-2.09-1.13a43.54,43.54,0,0,0-4.59-.52,35.28,35.28,0,0,1-4.91-.58,1.69,1.69,0,0,1-1.13-1.75A1.79,1.79,0,0,1,221,164c1.07-.16,5.12-.65,7.77-1-4.16-1.3-11-3.6-11.65-4.87-.37-.75-.71-1.43-.3-2s1.32-.74,4.89-.13c2.5.43,5,.9,6.87,1.27-3.1-1.63-7.64-4-9.21-4.9-2.54-1.44-3-2.55-3-3.79a1,1,0,0,1,.4-.8c.5-.33,1.21-.08,2,.22.24.08.5.18.75.25.72.22,5.09,1.48,8.64,2.5-2.23-1.17-4.58-2.39-5.12-2.65l-.62-.29c-1-.44-2.15-.94-2.42-2.1a1.42,1.42,0,0,1,.41-1.44,2.45,2.45,0,0,1,2.37-.32c1.09.37,12.53,4.62,13,4.8l9,3.72c-1.07-1.66-2.75-4.42-3.12-6a4.84,4.84,0,0,1,2.26-5.56,1.14,1.14,0,0,1,1-.07c.93.39,1.42,2,2,3.92a17.1,17.1,0,0,0,1,2.9,24.13,24.13,0,0,0,4,4.27,30.17,30.17,0,0,1,3.13,3.2c1.42,1.89,3.12,7.85,3.42,9l5.81,4.41a.5.5,0,0,1,.13.65l-7.55,12.93a.51.51,0,0,1-.38.25Zm-38.14-25.69c-.51,0-.68.07-.73.12a4.09,4.09,0,0,0,.38.9c.5.86,7.17,3.24,13.33,5.07a.5.5,0,0,1-.08,1c-.09,0-8.52,1-10.1,1.25-.49.07-.78.32-.81.69a.69.69,0,0,0,.46.72,44.77,44.77,0,0,0,4.66.53,32.78,32.78,0,0,1,4.88.58c.36.14,1.09.56,2.21,1.19a79.75,79.75,0,0,0,7.6,3.93A55.1,55.1,0,0,0,250.63,176c1.08,0,4.1,3.21,5.74,5l7-12-5.59-4.25a.5.5,0,0,1-.18-.27c0-.06-1.88-6.88-3.3-8.77a30.8,30.8,0,0,0-3-3.07,24.07,24.07,0,0,1-4.16-4.52,17.15,17.15,0,0,1-1.11-3.09c-.38-1.3-.9-3.08-1.4-3.29,0,0-.06,0-.16,0a3.8,3.8,0,0,0-1.75,4.45c.5,2.14,3.84,7,3.87,7.05a.49.49,0,0,1-.6.74l-10.47-4.34c-.11,0-11.9-4.42-13-4.78a1.52,1.52,0,0,0-1.38.11.45.45,0,0,0-.11.47c.16.68,1,1,1.85,1.42.23.1.45.19.66.3,1.08.53,9.16,4.76,9.5,4.94a.5.5,0,0,1-.37.92c-.49-.14-12.13-3.47-13.38-3.85-.27-.08-.54-.18-.8-.27a3.83,3.83,0,0,0-1.17-.31c0,.57,0,1.44,2.52,2.86S232,158,232.1,158a.5.5,0,0,1-.33.93c-.05,0-5.11-1.06-10.26-1.94A20,20,0,0,0,218.32,156.64Z" style="fill:#263238"></path><path d="M252.15,168.26h0a5.25,5.25,0,0,1-4.77-2.91c-.73-1.66-1.26-9.12-1.31-10a.49.49,0,0,1,.46-.53.51.51,0,0,1,.53.46c.16,2.25.67,8.36,1.23,9.63a4.28,4.28,0,0,0,3.91,2.31.5.5,0,0,1,0,1Z" style="fill:#263238"></path><path d="M233.73,163.36h-.11a.49.49,0,0,1-.38-.59l2.08-9.79a.49.49,0,0,1,.59-.39.51.51,0,0,1,.39.59l-2.08,9.8A.5.5,0,0,1,233.73,163.36Z" style="fill:#263238"></path><path d="M397.2,444.76s-2.14,6.92-4.05,9.6-11.85,11.08-16,14.14,3.44,5.35,9.94,5,20.25-1.91,26.37-4.21,7.26-5.35,6.88-7.64-3.82-18.35-3.82-18.35Z" style="fill:#fff"></path><path d="M385.59,474c-4.56,0-9.37-1.18-10.1-3.22-.22-.63-.18-1.61,1.31-2.69,4.42-3.22,14.15-11.52,15.94-14s4-9.39,4-9.46a.52.52,0,0,1,.44-.35l19.27-1.49a.49.49,0,0,1,.53.4c.14.65,3.45,16.09,3.82,18.37.33,1.93-.18,5.56-7.19,8.19-6.39,2.4-20.63,3.89-26.53,4.24C386.58,474,386.09,474,385.59,474Zm12-28.78c-.46,1.42-2.3,7-4,9.42-2,2.79-12.07,11.27-16.17,14.25-.55.4-1.16,1-1,1.56C377,472,382.22,473.25,387,473c5.84-.34,19.94-1.82,26.23-4.17,4.7-1.77,7-4.29,6.56-7.1-.34-2-3.18-15.33-3.73-17.9Z" style="fill:#263238"></path><path d="M387,473.47c6.49-.38,20.25-1.91,26.37-4.21s7.26-5.35,6.88-7.64c-.06-.35-.19-1-.37-1.93-5.14,3-16.79,9.28-28.68,9.57-15.29.39-14.14-.76-14.14-.76C372.89,471.56,380.54,473.85,387,473.47Z" style="fill:#fff"></path><path d="M385.59,474c-4.56,0-9.37-1.18-10.1-3.22-.22-.63-.18-1.61,1.31-2.69a.49.49,0,0,1,.77.23c.5.2,2.85.71,13.66.43,8.32-.2,17.89-3.4,28.44-9.5a.5.5,0,0,1,.74.33c.18.91.32,1.59.37,2,.33,1.93-.18,5.56-7.19,8.19-6.39,2.4-20.63,3.89-26.53,4.24h0C386.58,474,386.09,474,385.59,474Zm1.45-.54h0Zm-10-4.29c-.42.37-.76.83-.61,1.28C377,472,382.22,473.25,387,473c5.84-.34,19.94-1.82,26.23-4.17,4.7-1.77,7-4.29,6.56-7.1,0-.25-.12-.68-.23-1.23-10.46,6-20,9.09-28.32,9.29C380.82,470,377.92,469.6,377,469.18Zm.06-.68h0Z" style="fill:#263238"></path></g><g id="freepik--character-1--inject-15"><path d="M114.08,443l3.68,15.36s5.84,11.67,5.84,15.05-5.53,6.45-15,4.3-10.14-6.14-10.75-11.67-.31-25.19-.31-25.19Z" style="fill:#fff"></path><path d="M114.49,479a27.86,27.86,0,0,1-6-.72c-10-2.27-10.55-6.83-11.14-12.11-.61-5.49-.32-24.44-.31-25.25a.52.52,0,0,1,.17-.37.58.58,0,0,1,.4-.12l16.58,2.15a.49.49,0,0,1,.42.38l3.68,15.31c.47.95,5.86,11.84,5.86,15.22a4.33,4.33,0,0,1-1.82,3.36C120.51,478.23,117.77,479,114.49,479ZM98,441.46c0,3.25-.23,19.65.32,24.56.58,5.3,1,9.13,10.36,11.24,5.6,1.27,10.46.8,13-1.23a3.36,3.36,0,0,0,1.44-2.58c0-3.22-5.72-14.71-5.78-14.83a.36.36,0,0,1,0-.11l-3.61-15Z" style="fill:#263238"></path><path d="M123.6,473.45a16.33,16.33,0,0,0-1.21-4.61c-1.49,2.58-4.69,5.84-11.38,5.84-11.06,0-13.21-8.6-13.21-8.6.61,5.53,1.23,9.52,10.75,11.67S123.6,476.83,123.6,473.45Z" style="fill:#fff"></path><path d="M114.49,479a27.86,27.86,0,0,1-6-.72c-10-2.27-10.55-6.83-11.14-12.11a.49.49,0,0,1,.41-.54.48.48,0,0,1,.57.37c.09.33,2.21,8.22,12.73,8.22,6.38,0,9.47-3,10.94-5.59a.5.5,0,0,1,.91.08,16.22,16.22,0,0,1,1.24,4.78,4.33,4.33,0,0,1-1.82,3.36C120.51,478.23,117.77,479,114.49,479Zm-15.76-9.79c.73,3.69,2.55,6.42,9.93,8.09,5.6,1.27,10.46.8,13-1.23a3.36,3.36,0,0,0,1.44-2.58,12.24,12.24,0,0,0-.84-3.48c-1.78,2.55-5.11,5.21-11.25,5.21C104,475.18,100.44,471.78,98.73,469.17Z" style="fill:#263238"></path><path d="M136.5,439.05s-9.83,17.81-5.53,20.58,14.75,2.76,16,2.76,9.21,2.46,17.2,3.07,13.2-1.23,13.82-4-4.61-3.38-12.9-8.29a48.38,48.38,0,0,1-13.21-11.68Z" style="fill:#fff"></path><path d="M167.09,466.08c-1,0-2,0-3-.12a97.38,97.38,0,0,1-14.19-2.45,26.7,26.7,0,0,0-3-.62c-2.77,0-12.13-.2-16.24-2.84-4.56-2.93,4.33-19.38,5.36-21.24a.51.51,0,0,1,.52-.26L151.94,441a.46.46,0,0,1,.32.2,48.33,48.33,0,0,0,13.06,11.54,81.92,81.92,0,0,0,7.8,4c3.62,1.68,5.81,2.7,5.34,4.83C177.83,464.38,173.4,466.08,167.09,466.08ZM136.77,439.6c-3.69,6.76-8.33,17.8-5.53,19.61,3.88,2.49,13,2.68,15.7,2.68a22,22,0,0,1,3.21.64,94.84,94.84,0,0,0,14,2.43c8.06.62,12.79-1.34,13.29-3.6.29-1.29-1.26-2.07-4.78-3.7a84,84,0,0,1-7.89-4.05A49.84,49.84,0,0,1,151.58,442Z" style="fill:#263238"></path><path d="M178,461.47a1.94,1.94,0,0,0-.89-2,20.4,20.4,0,0,1-13.24,2.95c-9.83-1.23-14.74-3.07-22.12-3.68a29.92,29.92,0,0,1-11.61-3.95c-.42,2.28-.3,4.12.86,4.87,4.3,2.76,14.75,2.76,16,2.76s9.21,2.46,17.2,3.07S177.35,464.23,178,461.47Z" style="fill:#fff"></path><path d="M167.09,466.08c-1,0-2,0-3-.12a97.38,97.38,0,0,1-14.19-2.45,26.7,26.7,0,0,0-3-.62c-2.77,0-12.13-.2-16.24-2.84-1.25-.81-1.6-2.57-1.08-5.38a.51.51,0,0,1,.28-.37.53.53,0,0,1,.46,0,29,29,0,0,0,11.4,3.89,84,84,0,0,1,10.54,1.69c3.22.66,6.87,1.4,11.6,2A20,20,0,0,0,176.82,459a.5.5,0,0,1,.57,0,2.43,2.43,0,0,1,1.07,2.53h0C177.83,464.38,173.4,466.08,167.09,466.08Zm-36.6-10.54c-.2,1.46-.17,3.07.75,3.67,3.88,2.49,13,2.68,15.7,2.68a22,22,0,0,1,3.21.64,94.84,94.84,0,0,0,14,2.43c8.06.62,12.79-1.34,13.29-3.6h0a1.29,1.29,0,0,0-.46-1.3,20.89,20.89,0,0,1-13.24,2.83c-4.77-.6-8.44-1.35-11.68-2a84.51,84.51,0,0,0-10.42-1.68A29.16,29.16,0,0,1,130.49,455.54Z" style="fill:#263238"></path><path d="M80.78,251.66a187.72,187.72,0,0,0-3.31,30.85C77,300,87.14,329.46,87.6,332.68s2.3,24.86,2.3,24.86S89,367.67,89,377.33s8.29,68.13,8.29,68.13l19.79-.46s3.22-64.91,3.22-74.57,3.22-44.19,3.22-46,1.85-35,1.85-35l11.46,59.64s2.91,6.47.61,29.48-2.87,63.71-2.87,63.71l15.65,2.3,3.68-1.84s17.5-100.35,17.5-103.11-9.09-92.32-9.09-92.32Z" style="fill:#263238"></path><path d="M97.27,446a.51.51,0,0,1-.5-.43c-.34-2.39-8.29-58.61-8.29-68.2s.91-19.73.92-19.84-1.84-21.57-2.29-24.74c-.1-.69-.71-2.79-1.55-5.7-2.9-10-9-30.94-8.59-44.55a190.51,190.51,0,0,1,3.32-30.94.5.5,0,0,1,.46-.39l81.52-4.4a.5.5,0,0,1,.52.45c.37,3.66,9.09,89.61,9.09,92.37s-16.79,99.09-17.5,103.19a.5.5,0,0,1-.27.36L150.43,445a.46.46,0,0,1-.3,0l-15.65-2.3a.51.51,0,0,1-.43-.5c0-.41.6-41,2.88-63.75,2.25-22.51-.55-29.17-.58-29.23a.45.45,0,0,1,0-.11l-10.7-55.65C125.13,302.4,124,323,124,324.4c0,.58-.28,4-.71,9.15-.94,11.29-2.51,30.17-2.51,36.88,0,9.57-3.19,73.94-3.22,74.59a.51.51,0,0,1-.49.48L97.28,446ZM81.19,252.14A191.4,191.4,0,0,0,78,282.52c-.35,13.46,5.66,34.26,8.55,44.26.88,3.05,1.47,5.07,1.58,5.83.45,3.2,2.22,24,2.3,24.89,0,.19-.92,10.3-.92,19.83,0,9.08,7.46,62.21,8.22,67.62l18.88-.44c.29-5.87,3.2-65,3.2-74.08,0-6.75,1.57-25.66,2.51-37,.4-4.77.71-8.53.71-9.07,0-1.84,1.77-33.66,1.85-35a.48.48,0,0,1,.46-.47.49.49,0,0,1,.53.4l11.45,59.58c.3.73,2.83,7.67.63,29.68-2.14,21.46-2.79,58.76-2.86,63.23L150.12,444l3.32-1.66c6.05-34.76,17.44-100.63,17.44-102.77,0-2.61-8.32-84.74-9-91.79Z" style="fill:#263238"></path><path d="M82.36,241.83s-1.93,9.13-1.58,9.83,9.13,10.72,34.61,11.25,38.12-4.22,41.11-6,6-2.46,6-5.1a19.41,19.41,0,0,0-1.23-6c-.18-.53-10,6.5-35.14,4.74A170.67,170.67,0,0,1,82.36,241.83Z" style="fill:#162039"></path><path d="M119.35,263.45c-1.29,0-2.61,0-4,0-26.92-.56-35-11.41-35-11.52-.35-.71.64-5.92,1.54-10.17a.5.5,0,0,1,.66-.36,171.68,171.68,0,0,0,43.61,8.75c13.6.95,25-.51,33.84-4.35.91-.39,1.16-.5,1.44-.37a.57.57,0,0,1,.29.32l.06.16a19.35,19.35,0,0,1,1.2,6c0,2.33-1.94,3.31-4.19,4.44-.66.34-1.34.68-2,1.09C156.31,257.63,146.08,263.45,119.35,263.45Zm-36.62-21a65.49,65.49,0,0,0-1.49,9c1,1.65,10.82,10.44,34.16,10.92,23.54.49,37-3.65,40.84-5.91.72-.42,1.42-.77,2.09-1.11,2.33-1.18,3.64-1.92,3.64-3.55a17.9,17.9,0,0,0-1.06-5.39l-.53.23c-9,3.9-20.55,5.39-34.31,4.43A175.05,175.05,0,0,1,82.73,242.49Zm78,3.54Z" style="fill:#263238"></path><path d="M91.29,93.52s-10-3.34-18.73,7.79-8.16,26.34-7,30.61S72.19,144,81.09,143s11.31-8.71,10.39-15.95S87.58,108,88.69,103s3.53-6.49,3.53-6.49Z" style="fill:#263238"></path><path d="M79.61,143.62C71,143.62,66,135.84,65,132c-.86-3.26-2.26-19,7.13-31,8.84-11.27,19.18-8,19.29-8a.51.51,0,0,1,.32.32l.93,3a.5.5,0,0,1-.22.57s-2.25,1.48-3.3,6.18c-.76,3.42.48,10.37,1.58,16.51.48,2.71.93,5.26,1.21,7.43.64,5-.31,9.35-2.66,12.32a11.45,11.45,0,0,1-8.17,4.19A13.3,13.3,0,0,1,79.61,143.62Zm8-50.09c-3.58,0-9.33,1.28-14.66,8.09-8.49,10.83-8.07,25.91-7,30.17,1,3.76,6.13,11.68,15.05,10.76a10.49,10.49,0,0,0,7.48-3.82c2.19-2.76,3.06-6.87,2.46-11.57-.27-2.15-.73-4.69-1.21-7.38-1.16-6.54-2.37-13.3-1.56-16.91.91-4.12,2.7-6,3.43-6.57l-.75-2.38A13,13,0,0,0,87.61,93.53Z" style="fill:#263238"></path><path d="M91.32,211.08s-.53,14.58-2.11,16.69-8.61,10.72-8.43,15.46,27.4,14.23,44.27,13.71,37.24-6.33,37.24-9.67-1.93-7.55-4.21-13.52-6.15-12.48-6.68-16.87-1.93-18.1-1.93-20-16.87-6.67-16.87-6.67Z" style="fill:#162039"></path><path d="M123.7,257.46c-17,0-43.24-9.26-43.42-14.21-.17-4.47,5.52-11.86,8-15l.58-.76c1.09-1.45,1.8-10.61,2-16.41a.48.48,0,0,1,.27-.42l41.29-20.91a.5.5,0,0,1,.36,0c6.43,1.81,17.23,5.15,17.23,7.16,0,1.82,1.37,15.31,1.93,20,.32,2.73,2,6.33,3.77,10.15,1,2.18,2,4.42,2.87,6.6.4,1,.79,2,1.16,3,1.8,4.57,3.09,7.88,3.09,10.72,0,3.95-21.15,9.65-37.73,10.17ZM91.81,211.4c-.1,2.46-.65,14.61-2.2,16.67l-.59.77c-2.16,2.81-7.9,10.26-7.74,14.37S107.86,257,125,256.44c18.31-.58,36.76-6.65,36.76-9.17s-1.33-6.05-3-10.35c-.37-.95-.76-1.95-1.16-3-.82-2.14-1.85-4.37-2.85-6.53-1.81-3.89-3.51-7.57-3.86-10.45-.51-4.27-1.93-18.1-1.93-20.09-.38-1-8.73-4-16.32-6.14Z" style="fill:#263238"></path><path d="M99.75,132.38s-17.92,8.25-22.84,10.71-6.67,2.11-5.8,5.45-2.63,7-2.1,22.31,2.1,32.68,3.16,41.46,1.58,10.54,3.86,9.84S89.49,218.82,98.1,216s30.29-16.17,30.29-16.17A129.68,129.68,0,0,0,154.74,203c14.23.18,15.28-.35,14.76-4.74s-4.22-21.26-9.14-33-3.51-13.88-7.2-19-18.8-10-21.43-10.72S99.75,132.38,99.75,132.38Z" style="fill:#162039"></path><path d="M75.24,222.79a1.77,1.77,0,0,1-1-.29c-1.25-.81-1.74-3.24-2.57-10.13-1.17-9.76-2.66-26.92-3.16-41.5a59.44,59.44,0,0,1,1.65-17.75c.47-2,.78-3.28.47-4.45-.78-3,.46-3.53,3.18-4.7.79-.34,1.76-.76,2.88-1.32,4.87-2.44,22.67-10.64,22.85-10.73a.53.53,0,0,1,.25,0c1.2.1,29.42,2.47,32.06,3.18,2.82.75,17.92,5.66,21.71,10.9a20.38,20.38,0,0,1,3.39,7.75A83.6,83.6,0,0,0,160.82,165c4.81,11.49,8.61,28.45,9.17,33.16.2,1.67.17,2.81-.6,3.67-1.38,1.53-4.87,1.75-14.66,1.63a132.23,132.23,0,0,1-26.26-3.13c-2.23,1.37-22,13.42-30.21,16.11-6,2-13.14,3.81-17.87,5-2,.51-3.52.91-4.21,1.12A3.23,3.23,0,0,1,75.24,222.79Zm24.6-89.9c-1.57.72-18.06,8.33-22.7,10.65-1.15.57-2.14,1-2.93,1.34-2.69,1.17-3.18,1.38-2.61,3.53.37,1.42,0,2.82-.47,5a58.9,58.9,0,0,0-1.62,17.47c.5,14.56,2,31.68,3.16,41.42.7,5.91,1.2,8.82,2.12,9.42.16.11.44.21,1.1,0s2.19-.6,4.25-1.13c4.72-1.22,11.83-3.06,17.81-5,8.45-2.76,30-16,30.17-16.12a.54.54,0,0,1,.39-.06,130.34,130.34,0,0,0,26.24,3.15c8.88.11,12.77-.05,13.9-1.3.51-.57.52-1.49.35-2.88-.56-4.67-4.33-21.49-9.1-32.9A84.36,84.36,0,0,1,156,154a19.18,19.18,0,0,0-3.23-7.42c-3.57-4.94-18.55-9.83-21.15-10.53S102,133.07,99.84,132.89Z" style="fill:#263238"></path><path d="M113.77,188.27s-10.86.15-16.83-3-10.54-4.75-11.59-3.52-6.51,4.92-7.38,6.5-4.92,6.15-4.75,7.38.88.71,2.81-1.23a41.48,41.48,0,0,1,3.87-3.51c.7-.53,2.28-1.58,2.28-1.58s-2.11,7.9-2.81,10,2.29,1.41,3.52.88,9-6.15,9-6.15a19.78,19.78,0,0,0,3.68.35l16-5.07Z" style="fill:#fff"></path><path d="M80.49,201.24a1.94,1.94,0,0,1-1.33-.41,1.48,1.48,0,0,1-.26-1.68c.52-1.55,1.82-6.35,2.45-8.69-.42.29-.86.6-1.15.82a37.6,37.6,0,0,0-3.81,3.47c-1.56,1.56-2.32,2.22-3,2s-.63-.83-.66-1.05c-.14-.93,1.13-2.69,3.08-5.27A28.56,28.56,0,0,0,77.53,188c.57-1,2.67-2.68,4.69-4.27A28.14,28.14,0,0,0,85,181.42c1.21-1.4,5.31-.26,12.21,3.4,5.79,3.06,16.49,3,16.59,3a.48.48,0,0,1,.5.39.5.5,0,0,1-.28.56l-2.29,1.06c-.21.07-15.48,4.91-16,5.09a14.2,14.2,0,0,1-3.72-.3c-1.33,1-7.71,5.57-8.89,6.08A7.81,7.81,0,0,1,80.49,201.24Zm1.69-12.44a.5.5,0,0,1,.29.09.52.52,0,0,1,.2.54c-.09.32-2.12,7.94-2.82,10-.06.18-.15.5,0,.62.36.33,1.83.08,2.85-.36s6.72-4.54,8.86-6.09a.51.51,0,0,1,.38-.09,20.89,20.89,0,0,0,3.46.37c.51-.18,15.31-4.87,15.94-5.07l.25-.12c-3.52-.13-10.44-.68-14.87-3-7.16-3.79-10.39-4.32-11-3.63a26.09,26.09,0,0,1-2.88,2.44c-1.76,1.39-4,3.12-4.44,4A27.83,27.83,0,0,1,76.61,191c-1,1.37-3,3.94-2.89,4.53a.77.77,0,0,0,0,.2A13.83,13.83,0,0,0,75.68,194a38.79,38.79,0,0,1,3.92-3.56c.7-.53,2.24-1.55,2.31-1.6A.53.53,0,0,1,82.18,188.8Z" style="fill:#263238"></path><path d="M82.18,189.8a.54.54,0,0,1-.21-.05.5.5,0,0,1-.24-.67l2.11-4.39a.49.49,0,0,1,.67-.23.49.49,0,0,1,.23.66l-2.11,4.39A.49.49,0,0,1,82.18,189.8Z" style="fill:#263238"></path><path d="M79.9,200.89s2.81-6.85,4.22-10.71,2.81-6.15,4.39-6.33" style="fill:#fff"></path><path d="M79.9,201.39a.63.63,0,0,1-.19,0,.5.5,0,0,1-.27-.66c0-.07,2.82-6.88,4.21-10.69,1.6-4.41,3.08-6.46,4.8-6.66a.51.51,0,0,1,.55.45.5.5,0,0,1-.44.55c-1.24.14-2.58,2.15-4,6s-4.2,10.66-4.23,10.73A.48.48,0,0,1,79.9,201.39Z" style="fill:#263238"></path><path d="M82.89,200.19a51.21,51.21,0,0,1,3.86-7.38L92,185.43" style="fill:#fff"></path><path d="M82.89,200.69a.45.45,0,0,1-.2,0,.49.49,0,0,1-.26-.66,51.65,51.65,0,0,1,3.91-7.47l5.27-7.38a.51.51,0,0,1,.7-.11.49.49,0,0,1,.12.69l-5.27,7.38a52.46,52.46,0,0,0-3.82,7.29A.49.49,0,0,1,82.89,200.69Z" style="fill:#263238"></path><path d="M91.84,194.54a.47.47,0,0,1-.27-.08.5.5,0,0,1-.14-.69l1.93-3a.5.5,0,1,1,.84.55l-1.93,3A.51.51,0,0,1,91.84,194.54Z" style="fill:#263238"></path><path d="M113.77,188.27s19.89-7.05,22-8.28,6.67-.88,7.73-.71,12.64,3.34,12.12,3.69-12.3,3-12.3,3l-14.93,13.88" style="fill:#162039"></path><path d="M128.39,200.34a.49.49,0,0,1-.37-.16.5.5,0,0,1,0-.71L143,185.59a.46.46,0,0,1,.23-.12c3.51-.78,8.79-2,11.08-2.61-2.75-1-10-2.94-10.88-3.08-1.25-.21-5.51-.46-7.39.64-2.13,1.24-21.27,8-22.08,8.32a.5.5,0,0,1-.64-.3.49.49,0,0,1,.3-.64c.2-.07,19.87-7.05,21.91-8.25,2.33-1.35,7.2-.9,8.07-.76.12,0,12.32,3,12.54,4a.55.55,0,0,1-.22.56c-.54.36-8.7,2.21-12.34,3l-14.83,13.79A.55.55,0,0,1,128.39,200.34Z" style="fill:#263238"></path><path d="M143.5,179.28c-1.06-.17-5.63-.52-7.73.71-.24.14-.72.38-1.35.71a12.31,12.31,0,0,1,2.58,4.21c.73,1.89,1.4,3.73,1.89,5.17l4.43-4.12s11.77-2.64,12.3-3S144.55,179.46,143.5,179.28Z" style="fill:#fff"></path><path d="M138.89,190.58l-.12,0a.49.49,0,0,1-.35-.32c-.64-1.84-1.27-3.58-1.89-5.15a11.87,11.87,0,0,0-2.47-4,.52.52,0,0,1-.14-.43.5.5,0,0,1,.27-.36c.63-.32,1.09-.57,1.32-.71,2.33-1.35,7.2-.9,8.07-.76.12,0,12.32,3,12.54,4a.55.55,0,0,1-.22.56c-.54.36-8.7,2.21-12.34,3l-4.33,4A.48.48,0,0,1,138.89,190.58Zm-3.66-9.73a13.63,13.63,0,0,1,2.23,3.87c.54,1.38,1.09,2.88,1.65,4.47l3.87-3.6a.46.46,0,0,1,.23-.12c3.51-.78,8.79-2,11.08-2.61-2.75-1-10-2.94-10.88-3.08-1.25-.21-5.51-.46-7.39.64Zm20.05,2.43h0Z" style="fill:#263238"></path><path d="M103.35,67.55S93.7,70,90.92,82.39a25.67,25.67,0,0,0,10,26.9c6.67,4.63,8.34,6.86,8.34,7.42s1.49,2.59-.18,8.16a30.81,30.81,0,0,1-3.34,8s12.06,3.53,16.88,3.53,6.12-.74,6.12-.74l2.22-9.46s3.16.92,4.46.55,5.56-8.9,5.93-12.43.74-5.56.74-5.56,2.79.93,3.16-1.11-2-5-3.71-8.54.18-8.9-1.12-16-7.23-12.42-14.65-15.21S107.8,65.33,103.35,67.55Z" style="fill:#fff"></path><path d="M122.64,136.87c-4.84,0-16.53-3.4-17-3.55a.47.47,0,0,1-.33-.31.48.48,0,0,1,.06-.45,31.06,31.06,0,0,0,3.27-7.84c1.31-4.37.61-6.48.31-7.38a2.34,2.34,0,0,1-.15-.63h0s-.53-1.73-8.13-7A26.15,26.15,0,0,1,90.43,82.28c2.71-12.08,11.91-15,12.74-15.2,4.46-2.19,15.12-2.5,22.8.38,8.13,3.05,13.73,8.87,15,15.58a40,40,0,0,1,.43,9.11c-.1,2.8-.17,5,.64,6.72.52,1.11,1.12,2.15,1.7,3.16,1.25,2.21,2.33,4.11,2,5.68a2,2,0,0,1-.93,1.4,3.4,3.4,0,0,1-2.31.24c-.13.82-.39,2.55-.65,5-.35,3.31-4.54,12.35-6.3,12.85-1.11.32-3.22-.16-4.22-.41l-2.1,9a.55.55,0,0,1-.24.32C128.86,136.14,127.45,136.87,122.64,136.87Zm-16.11-4.33c2.54.72,12,3.33,16.11,3.33a18,18,0,0,0,5.69-.61l2.17-9.21a.48.48,0,0,1,.63-.36c.83.24,3.22.82,4.17.55s5.21-8.53,5.58-12,.74-5.58.74-5.6a.5.5,0,0,1,.24-.34.49.49,0,0,1,.41,0,3,3,0,0,0,2,0,1,1,0,0,0,.46-.72c.22-1.21-.79-3-1.94-5-.59-1-1.19-2.09-1.73-3.23-.92-1.94-.84-4.37-.74-7.18a39.18,39.18,0,0,0-.42-8.9c-1.17-6.36-6.53-11.9-14.33-14.83-7.47-2.8-17.8-2.51-22.05-.39l-.1,0c-.09,0-9.38,2.5-12.06,14.46a25.14,25.14,0,0,0,9.81,26.38c5.36,3.72,8.56,6.65,8.56,7.83l.1.32c.33,1,1.1,3.3-.3,8A36,36,0,0,1,106.53,132.54Zm-3.18-65h0Z" style="fill:#263238"></path><path d="M138.65,78.17c-2.57-4.62-7.3-8.16-12.86-10.25-7.42-2.78-18-2.59-22.44-.37,0,0-9.65,2.41-12.43,14.84a25.67,25.67,0,0,0,10,26.9c1.37.95,2.52,1.8,3.5,2.56a5.06,5.06,0,0,0,3-3.86c1.11-5,.18-8.35.74-8.72s4.64-.19,5.94-1.48.18-6.12.18-6.87S125.55,77.7,138.65,78.17Z" style="fill:#263238"></path><path d="M104.44,112.35a.48.48,0,0,1-.3-.11c-1-.8-2.22-1.66-3.49-2.54A26.15,26.15,0,0,1,90.43,82.28c2.71-12.08,11.91-15,12.74-15.2,4.46-2.19,15.12-2.5,22.8.38,5.94,2.22,10.6,5.94,13.11,10.46a.49.49,0,0,1,0,.51.5.5,0,0,1-.44.24C126,78.22,115.49,89.81,114.8,91c0,.17.06.48.1.81.37,2.48.67,5.22-.44,6.33s-3.12,1.2-4.69,1.36c-.46,0-1,.11-1.26.17a9.77,9.77,0,0,0,0,1.39,27.61,27.61,0,0,1-.57,7,5.64,5.64,0,0,1-3.28,4.21A.71.71,0,0,1,104.44,112.35Zm8.81-46c-4,0-7.58.6-9.68,1.65l-.1,0c-.09,0-9.38,2.5-12.06,14.46a25.14,25.14,0,0,0,9.81,26.38c1.19.82,2.29,1.62,3.29,2.39a4.65,4.65,0,0,0,2.43-3.39,26.31,26.31,0,0,0,.55-6.79c0-1.29,0-1.93.4-2.24a4.75,4.75,0,0,1,1.78-.34c1.34-.14,3.35-.35,4.08-1.08s.37-4.09.16-5.48a8.82,8.82,0,0,1-.12-1c0-.62,2-2.58,2.59-3.17,2.48-2.39,11.18-10,21.38-10.1-2.48-4-6.76-7.24-12.14-9.26A36.61,36.61,0,0,0,113.25,66.35Z" style="fill:#263238"></path><polygon points="130.99 126.17 119.48 121.71 129.13 133.21 130.99 126.17" style="fill:#263238"></polygon><path d="M129.13,133.71a.49.49,0,0,1-.38-.17L119.1,122a.53.53,0,0,1,0-.62.5.5,0,0,1,.59-.17l11.5,4.45a.51.51,0,0,1,.3.59l-1.86,7a.49.49,0,0,1-.37.36Zm-8-10.83,7.77,9.27,1.5-5.68Z" style="fill:#263238"></path><path d="M128.47,114.14a.5.5,0,0,1-.17-1,32.78,32.78,0,0,1,5.32-1.43,36.09,36.09,0,0,1,3.95-.39.49.49,0,0,1,.51.48.5.5,0,0,1-.48.52,27.86,27.86,0,0,0-9,1.76Z" style="fill:#263238"></path><ellipse cx="134.14" cy="99.27" rx="1.11" ry="2.41" style="fill:#263238"></ellipse><path d="M131.17,94.58a.47.47,0,0,1-.35-.15.5.5,0,0,1,0-.71c.11-.11,2.71-2.63,6.87-.65a.5.5,0,0,1,.24.66.5.5,0,0,1-.67.24c-3.51-1.67-5.65.37-5.74.46A.49.49,0,0,1,131.17,94.58Z" style="fill:#263238"></path><path d="M111.14,102.24s-2.78-5.2-5.75-4.64-2.41,6.49-1.3,9.46,4.82,5.75,6.86,4.08" style="fill:#fff"></path><path d="M109.5,112.14a3.83,3.83,0,0,1-1-.13,8.22,8.22,0,0,1-4.9-4.77c-.85-2.27-1.48-6.47-.21-8.71a2.67,2.67,0,0,1,1.89-1.42c3.28-.62,6.16,4.67,6.28,4.89a.5.5,0,0,1-.21.68.49.49,0,0,1-.67-.21c-.73-1.35-3.09-4.77-5.22-4.38a1.72,1.72,0,0,0-1.2.93c-1,1.85-.51,5.76.28,7.86a7.2,7.2,0,0,0,4.22,4.16,2,2,0,0,0,1.86-.29.5.5,0,0,1,.7.07.52.52,0,0,1-.07.71A2.72,2.72,0,0,1,109.5,112.14Z" style="fill:#263238"></path><path d="M109.1,124.87s-5.2-3-6.87-1.12S98.71,131,97.41,134.7s-2.41,4.82,5,10.2,22.26,4.64,27.08,2.23,6.49-5.94,5.57-7.8-2.42-6.3-3.34-8.34l-.93-2-1.67,4.26A56.17,56.17,0,0,1,118,133a53.46,53.46,0,0,1-10.57-3.34Z" style="fill:#162039"></path><path d="M118.47,149.46c-5.77,0-12.18-1.14-16.34-4.16-6.86-5-6.76-6.46-5.46-10l.37-1c1.32-3.78,3.13-9,4.82-10.83,1.89-2.09,6.92.69,7.49,1a.51.51,0,0,1,.22.6l-1.52,4.38a51.71,51.71,0,0,0,10,3.12,53.7,53.7,0,0,0,10.7.21l1.55-4a.51.51,0,0,1,.46-.32.52.52,0,0,1,.46.29l.93,2c.43.94,1,2.35,1.52,3.84.65,1.72,1.32,3.5,1.81,4.49,1.1,2.19-.77,5.95-5.79,8.46C127.49,148.69,123.2,149.46,118.47,149.46ZM103.9,123.64a1.65,1.65,0,0,0-1.29.45c-1.56,1.73-3.41,7-4.63,10.49l-.1.28q-.13.39-.27.75c-1.08,3-1.49,4.1,5.1,8.88,7.17,5.2,21.92,4.51,26.57,2.19s6.08-5.63,5.34-7.12c-.52-1-1.2-2.84-1.85-4.58-.56-1.48-1.08-2.87-1.5-3.79l-.44-1-1.23,3.17a.51.51,0,0,1-.43.31,54.81,54.81,0,0,1-11.25-.19,53.86,53.86,0,0,1-10.69-3.37.5.5,0,0,1-.27-.62l1.53-4.43A12.08,12.08,0,0,0,103.9,123.64Z" style="fill:#263238"></path><path d="M107.43,130.19a.45.45,0,0,1-.16,0c-1.24-.41-4.16-1.48-4.57-2.51a1.12,1.12,0,0,1,.09-1.23c.39-.44,1.11-.49,2.35-.18a.48.48,0,0,1,.36.6.5.5,0,0,1-.6.37,2.67,2.67,0,0,0-1.34-.13s0,.08.07.2c.16.38,2,1.29,4,1.94a.5.5,0,0,1-.16,1Z" style="fill:#263238"></path><path d="M155.62,183.47a.5.5,0,0,1-.5-.45.49.49,0,0,1,.45-.54L161,182a.5.5,0,1,1,.09,1l-5.44.53Z" style="fill:#263238"></path><path d="M165.46,187.69a.43.43,0,0,1-.27-.08,15.48,15.48,0,0,0-10.35-2.39.51.51,0,0,1-.59-.39.5.5,0,0,1,.39-.59,16.13,16.13,0,0,1,11.08,2.53.5.5,0,0,1,.16.69A.51.51,0,0,1,165.46,187.69Z" style="fill:#263238"></path><path d="M150.7,181a.49.49,0,0,1-.5-.49C150,173,144,161.71,143.93,161.6a.5.5,0,0,1,.21-.68.49.49,0,0,1,.67.21c.26.47,6.21,11.61,6.39,19.37a.5.5,0,0,1-.49.51Z" style="fill:#263238"></path><path d="M146.66,165h-.1a.49.49,0,0,1-.39-.59c.73-3.83,7.46-8.88,7.74-9.09a.51.51,0,0,1,.7.1.5.5,0,0,1-.1.7c-.07.05-6.7,5-7.36,8.48A.51.51,0,0,1,146.66,165Z" style="fill:#263238"></path><path d="M146,158.88h0a.5.5,0,0,1-.46-.54,14.76,14.76,0,0,1,2.18-5.68.51.51,0,0,1,.7-.15.5.5,0,0,1,.14.69,14.09,14.09,0,0,0-2,5.21A.49.49,0,0,1,146,158.88Z" style="fill:#263238"></path><path d="M82.68,171.58a.46.46,0,0,1-.23-.06,13.67,13.67,0,0,0-4.2-1.58.5.5,0,0,1-.43-.56.51.51,0,0,1,.57-.43,14.61,14.61,0,0,1,4.53,1.69.5.5,0,0,1,.2.68A.51.51,0,0,1,82.68,171.58Z" style="fill:#263238"></path><path d="M96.24,181.72a.48.48,0,0,1-.34-.14,94.17,94.17,0,0,0-11.17-8.72.5.5,0,1,1,.53-.85,89.8,89.8,0,0,1,10.19,7.83c-.33-1.43-1-4-2.32-8-2.22-6.66-7.56-12-7.61-12.1a.5.5,0,0,1,.71-.71,36.32,36.32,0,0,1,7.85,12.49,60.66,60.66,0,0,1,2.65,9.58.51.51,0,0,1-.26.51A.49.49,0,0,1,96.24,181.72Z" style="fill:#263238"></path><path d="M96.94,185.76a.49.49,0,0,1-.49-.42l-.71-4a.5.5,0,1,1,1-.17l.7,4a.5.5,0,0,1-.4.58Z" style="fill:#263238"></path></g></svg>
